<?xml version="1.0" encoding="UTF-8"?> <svg xmlns="http://www.w3.org/2000/svg" width="60" height="60" viewBox="0 0 60 60" fill="none"><path d="M30 60C46.5685 60 60 46.5685 60 30C60 13.4315 46.5685 0 30 0C13.4315 0 0 13.4315 0 30C0 46.5685 13.4315 60 30 60Z" fill="#2E3148"></path><path d="M30.0375 10.3687C27.6094 10.3687 25.6406 19.1755 25.6406 30.0374C25.6406 40.8993 27.6094 49.7062 30.0375 49.7062C32.4637 49.7062 34.4325 40.8993 34.4325 30.0374C34.4325 19.1755 32.4637 10.3687 30.0375 10.3687ZM30.3412 48.5943C30.0637 48.9655 29.7844 48.688 29.7844 48.688C28.6669 47.3905 28.1081 44.9849 28.1081 44.9849C26.1525 38.6905 26.6175 25.1774 26.6175 25.1774C27.5362 14.4505 29.2087 11.9155 29.7769 11.353C29.8351 11.2953 29.9118 11.2601 29.9935 11.2536C30.0752 11.2471 30.1565 11.2697 30.2231 11.3174C31.0481 11.9043 31.7419 14.3493 31.7419 14.3493C33.7856 21.9393 33.6 29.0643 33.6 29.0643C33.7856 35.2668 32.5762 42.208 32.5762 42.208C31.6444 47.4843 30.3412 48.5943 30.3412 48.5943Z" fill="white"></path><path d="M47.0965 20.2499C45.8871 18.1424 37.2715 20.818 27.8459 26.2237C18.4202 31.6293 11.7715 37.7174 12.9771 39.8249C14.1865 41.9324 22.804 39.2568 32.2296 33.8512C41.6552 28.4455 48.3059 22.3555 47.0984 20.2499H47.0965ZM14.0909 39.5343C13.6296 39.478 13.7346 39.0955 13.7346 39.0955C14.3009 37.483 16.1084 35.7993 16.1084 35.7993C20.5952 30.9712 32.5502 24.6505 32.5502 24.6505C42.3115 20.1093 45.3434 20.3005 46.1121 20.5105C46.1915 20.5323 46.2605 20.5816 46.3069 20.6496C46.3533 20.7176 46.374 20.7999 46.3652 20.8818C46.2715 21.8887 44.4902 23.7074 44.4902 23.7074C38.929 29.2593 32.6552 32.6474 32.6552 32.6474C27.3677 35.8949 20.7434 38.2968 20.7434 38.2968C15.7034 40.1118 14.0909 39.5343 14.0909 39.5343Z" fill="white"></path><path d="M47.0534 39.8943C48.2722 37.7943 41.6403 31.6762 32.2447 26.2293C22.8509 20.7843 14.2372 18.0768 13.0203 20.1806C11.8016 22.2862 18.4353 28.3987 27.8328 33.8456C37.2322 39.2906 45.8366 41.9981 47.0534 39.8943ZM13.8284 20.9924C13.6466 20.5649 14.0272 20.4618 14.0272 20.4618C15.7091 20.1431 18.0716 20.8687 18.0716 20.8687C24.4972 22.3312 35.9553 29.5087 35.9553 29.5087C44.7772 35.6812 46.1309 38.4018 46.3334 39.1724C46.3539 39.2516 46.3458 39.3355 46.3105 39.4093C46.2751 39.483 46.2149 39.5419 46.1403 39.5756C45.2216 39.9974 42.7559 39.3693 42.7559 39.3693C35.1622 37.3331 29.0891 33.6037 29.0891 33.6037C23.6328 30.6599 18.2366 26.1318 18.2366 26.1318C14.1359 22.6781 13.8303 20.9943 13.8303 20.9943L13.8266 20.9924H13.8284Z" fill="white"></path><path d="M29.9905 32.3043C31.2684 32.3043 32.3043 31.2684 32.3043 29.9905C32.3043 28.7127 31.2684 27.6768 29.9905 27.6768C28.7127 27.6768 27.6768 28.7127 27.6768 29.9905C27.6768 31.2684 28.7127 32.3043 29.9905 32.3043Z" fill="white"></path><path d="M39.4785 22.98C40.514 22.98 41.3535 22.1405 41.3535 21.105C41.3535 20.0694 40.514 19.23 39.4785 19.23C38.443 19.23 37.6035 20.0694 37.6035 21.105C37.6035 22.1405 38.443 22.98 39.4785 22.98Z" fill="white"></path><path d="M17.4492 27.7012C18.4848 27.7012 19.3242 26.8617 19.3242 25.8262C19.3242 24.7906 18.4848 23.9512 17.4492 23.9512C16.4137 23.9512 15.5742 24.7906 15.5742 25.8262C15.5742 26.8617 16.4137 27.7012 17.4492 27.7012Z" fill="white"></path><path d="M27.2607 44.73C28.2963 44.73 29.1357 43.8905 29.1357 42.855C29.1357 41.8194 28.2963 40.98 27.2607 40.98C26.2252 40.98 25.3857 41.8194 25.3857 42.855C25.3857 43.8905 26.2252 44.73 27.2607 44.73Z" fill="white"></path></svg> 