<?xml version="1.0" encoding="UTF-8"?> <svg xmlns="http://www.w3.org/2000/svg" width="60" height="60" viewBox="0 0 60 60" fill="none"><g clip-path="url(#clip0_8521_4673)"><path d="M18.334 25.2507L29.9882 13.5965L41.6423 25.2507L48.4169 18.4762L29.9882 0.0473633L11.5594 18.4762L18.334 25.2507ZM0 29.9882L6.77458 23.2136L13.5492 29.9882L6.77458 36.7627L0 29.9882ZM18.334 34.7256L29.9882 46.3798L41.6423 34.7256L48.4406 41.5002L30.0118 59.9527L11.5831 41.5002L18.334 34.7256ZM46.4272 29.9882L53.2017 23.2136L59.9763 29.9882L53.2017 36.7627L46.4272 29.9882Z" fill="#F3BA2F"></path><path d="M36.8571 29.988L29.9641 23.1187L24.8713 28.1877L24.3028 28.7799L23.0947 29.988L29.9641 36.8573L36.8807 29.988" fill="#F3BA2F"></path></g><defs><clipPath id="clip0_8521_4673"><rect width="60" height="60" fill="white"></rect></clipPath></defs></svg> 