<?xml version="1.0" encoding="UTF-8"?> <svg xmlns="http://www.w3.org/2000/svg" width="46" height="60" viewBox="0 0 46 60" fill="none"><g clip-path="url(#clip0_8584_1777)"><path d="M45.4906 18.6327C44.5427 13.4866 42.0157 9.19863 38.1128 5.71944C37.4258 5.08646 36.6856 4.51375 35.9004 4.00766C35.7402 3.85315 35.5521 3.73044 35.3462 3.64605C35.2777 3.5947 35.2135 3.53906 35.1429 3.49412C30.7184 0.705404 25.4683 -0.474126 20.2761 0.154018C17.3001 0.472625 14.4211 1.399 11.8178 2.87574C6.47845 5.90416 2.87443 10.3462 1.00574 16.2019C0.205128 18.7972 -0.126 21.5144 0.0278964 24.2259C0.12814 26.029 0.435432 27.8146 0.943704 29.5474C1.04393 29.9692 1.23611 30.3636 1.50651 30.7024C1.7769 31.0412 2.11882 31.3161 2.50783 31.5074C3.67184 32.0744 4.78877 31.9353 5.7923 31.118C6.24817 30.7431 6.58116 30.2402 6.74823 29.6741C6.9153 29.1081 6.90877 28.5049 6.7295 27.9426C6.33582 26.667 6.09661 25.3488 6.01698 24.0162C5.85315 21.3954 6.29235 18.772 7.30082 16.3474C7.38859 16.2038 7.45489 16.0481 7.49765 15.8853C7.73302 15.4402 7.95343 14.9887 8.20377 14.5522C11.7557 8.33204 18.7676 4.95984 25.8287 6.25009C32.0018 7.37559 36.3133 10.9575 38.7248 16.7347C40.1349 20.1305 40.2718 23.6589 39.3667 27.2194C39.1539 28.0003 38.8982 28.769 38.6007 29.5217C38.4364 29.8171 38.2934 30.1239 38.1728 30.4397C38.1509 30.4661 38.1309 30.494 38.1128 30.5231C37.343 32.0807 36.332 33.5069 35.1172 34.7491C32.1644 37.7447 28.5975 39.495 24.3994 39.8309C21.9772 40.0235 19.5422 39.9614 17.1114 39.9465C16.951 39.9465 16.9124 39.9101 16.9467 39.7432C17.0858 39.0649 17.2056 38.3823 17.3318 37.7019C18.2348 32.819 19.1385 27.9355 20.0429 23.0512C20.1945 22.2649 20.0334 21.4506 19.5938 20.7812C19.1543 20.1119 18.4709 19.6405 17.6892 19.4672C17.2947 19.384 16.8876 19.3803 16.4916 19.4561C16.0957 19.532 15.7188 19.686 15.3829 19.9091C15.0471 20.1322 14.7591 20.4199 14.5357 20.7555C14.3122 21.0911 14.1579 21.4678 14.0816 21.8636C13.6536 24.059 13.2257 26.2586 12.7978 28.4561C12.0531 32.282 11.3078 36.1071 10.5618 39.9315C9.72441 44.2195 8.88921 48.5061 8.05614 52.7912C7.84217 53.8311 7.66029 54.8732 7.4613 55.9131C7.42064 56.1763 7.27086 56.4202 7.35217 56.7005C7.35217 56.7583 7.35216 56.816 7.34146 56.876C7.30802 56.9634 7.30206 57.0589 7.32435 57.1498C7.32435 57.2183 7.32435 57.2868 7.32435 57.3531C7.42008 58.0671 7.76669 58.7237 8.30219 59.2055C8.83769 59.6873 9.52716 59.9628 10.2472 59.9828C10.9648 60.0121 11.6695 59.7865 12.2366 59.3459C12.8037 58.9053 13.1965 58.2782 13.3455 57.5757C13.6644 55.9666 13.9725 54.3661 14.287 52.7484C14.4882 51.7128 14.5459 50.6429 15.0381 49.6801L15.252 49.265C15.2927 49.1986 15.3355 49.1344 15.3761 49.0702C16.2659 47.5941 17.6932 46.5204 19.3582 46.0746C20.2526 45.8243 21.1598 45.8478 22.0799 45.897C23.8507 45.9889 25.6261 45.8544 27.3629 45.4969C33.0289 44.3393 37.6806 41.5042 41.1791 36.9016C45.313 31.471 46.7252 25.3236 45.4906 18.6327Z" fill="#1F1F1F"></path><path d="M23.7557 52.5836C23.2698 52.583 22.7886 52.6782 22.3396 52.8636C21.8905 53.049 21.4823 53.321 21.1384 53.6641C20.7945 54.0073 20.5215 54.4148 20.3351 54.8635C20.1486 55.3121 20.0524 55.7931 20.0518 56.2789C20.0492 56.7692 20.1442 57.2552 20.3311 57.7085C20.518 58.1619 20.7932 58.5735 21.1406 58.9196C21.488 59.2656 21.9008 59.5391 22.3549 59.7242C22.8089 59.9093 23.2953 60.0023 23.7856 59.9977C24.2713 59.9969 24.752 59.9003 25.2003 59.7136C25.6486 59.5268 26.0556 59.2535 26.3982 58.9094C26.7408 58.5652 27.0122 58.1568 27.1969 57.7077C27.3816 57.2585 27.4759 56.7774 27.4745 56.2917C27.4765 55.8033 27.3816 55.3193 27.1953 54.8679C27.009 54.4164 26.7349 54.0063 26.3891 53.6614C26.0432 53.3166 25.6324 53.0437 25.1804 52.8587C24.7283 52.6737 24.2441 52.5802 23.7557 52.5836Z" fill="#E4027B"></path></g><defs><clipPath id="clip0_8584_1777"><rect width="45.9228" height="60" fill="white"></rect></clipPath></defs></svg> 