<?xml version="1.0" encoding="UTF-8"?> <svg xmlns="http://www.w3.org/2000/svg" width="60" height="60" viewBox="0 0 60 60" fill="none"><path d="M36.3317 41.0414C39.7724 41.0414 43.1359 40.0212 45.9967 38.1097C48.8575 36.1981 51.0873 33.4811 52.404 30.3024C53.7206 27.1236 54.0652 23.6257 53.3939 20.2511C52.7227 16.8766 51.0658 13.7768 48.6329 11.3439C46.1999 8.91096 43.1002 7.25397 39.7256 6.58272C36.351 5.91148 32.8532 6.25602 29.6744 7.57272C26.4956 8.88942 23.7787 11.1192 21.8671 13.98C19.9556 16.8409 18.9353 20.2043 18.9353 23.645C18.9353 25.9295 19.3853 28.1917 20.2595 30.3024C21.1338 32.413 22.4152 34.3306 24.0306 35.9461C25.646 37.5615 27.5638 38.843 29.6744 39.7172C31.785 40.5915 34.0472 41.0414 36.3317 41.0414ZM36.3317 47.3847C31.6505 47.3847 27.0744 45.9965 23.1821 43.3958C19.2899 40.7951 16.2562 37.0984 14.4648 32.7735C12.6733 28.4486 12.2046 23.6897 13.1179 19.0985C14.0311 14.5072 16.2854 10.2898 19.5955 6.9797C22.9056 3.66959 27.1229 1.41544 31.7142 0.502177C36.3055 -0.411083 41.0645 0.0575717 45.3893 1.849C49.7142 3.64042 53.4107 6.67412 56.0115 10.5664C58.6122 14.4587 60.0004 19.0348 60.0004 23.7161C60.0004 29.9934 57.5067 36.0135 53.068 40.4522C48.6293 44.891 42.6091 47.3847 36.3317 47.3847Z" fill="#35D07F"></path><path d="M23.6921 53.6804C27.1338 53.6851 30.4995 52.6688 33.3635 50.7601C36.2274 48.8514 38.4609 46.1361 39.7812 42.9577C41.1015 39.7793 41.4494 36.2807 40.7808 32.9046C40.1123 29.5285 38.4573 26.4265 36.0253 23.9912C33.5933 21.5559 30.4936 19.8967 27.1184 19.2235C23.7431 18.5503 20.2441 18.8934 17.0639 20.2094C13.8837 21.5254 11.1654 23.7551 9.25279 26.6165C7.34019 29.4778 6.31931 32.8423 6.31931 36.284C6.3193 40.8937 8.14889 45.3149 11.4062 48.5767C14.6636 51.8385 19.0824 53.6741 23.6921 53.6804ZM23.6921 59.9999C19.0109 59.9999 14.4348 58.6117 10.5425 56.011C6.65022 53.4103 3.61654 49.7137 1.82512 45.3889C0.0336927 41.064 -0.435025 36.3051 0.478234 31.7138C1.39149 27.1225 3.64572 22.9052 6.95583 19.595C10.266 16.2849 14.4833 14.0306 19.0746 13.1174C23.6658 12.2041 28.4248 12.6729 32.7497 14.4643C37.0746 16.2558 40.7711 19.2895 43.3718 23.1817C45.9726 27.074 47.3607 31.65 47.3607 36.3312C47.3607 42.6086 44.8671 48.6289 40.4284 53.0676C35.9896 57.5063 29.9694 59.9999 23.6921 59.9999Z" fill="#FBCC5C"></path><path d="M37.1126 47.3373C38.7313 45.3558 39.8804 43.0334 40.4735 40.5445C42.9737 39.9121 45.3021 38.7317 47.2901 37.0888C47.1961 39.9893 46.562 42.8468 45.4202 45.5148C42.788 46.6323 39.9709 47.2504 37.1126 47.3373ZM19.4794 19.4319C16.9864 20.0646 14.6658 21.2451 12.6865 22.8876C12.7724 19.9885 13.3985 17.131 14.5327 14.4616C17.2078 13.3421 20.0612 12.709 22.9587 12.5918C21.3173 14.593 20.1301 16.9268 19.4794 19.4319Z" fill="#5EA33B"></path></svg> 