<?xml version="1.0" encoding="UTF-8"?> <svg xmlns="http://www.w3.org/2000/svg" width="53" height="60" viewBox="0 0 53 60" fill="none"><g clip-path="url(#clip0_8584_1815)"><path d="M-0.000235836 29.4763C1.23788 28.957 2.34093 28.1902 3.50101 27.5253C6.477 25.831 9.35394 23.934 12.426 22.4453C14.0228 21.6709 15.588 20.8575 17.1443 20.0111C17.4895 19.8235 17.7146 19.6164 17.6456 19.2052C17.5826 18.833 17.8272 18.6529 18.0868 18.5043C19.3579 17.7765 20.6381 17.0621 21.9107 16.3402C22.1868 16.1902 22.4345 16.1121 22.7316 16.3402C23.0288 16.5683 23.3514 16.4618 23.6426 16.2922C26.5615 14.5964 29.4745 12.8915 32.3965 11.2047C34.6476 9.90052 36.9212 8.61588 39.1843 7.32373V7.92403C36.6831 9.35675 34.1818 10.79 31.6806 12.2237C29.2714 13.6134 26.8652 15.0091 24.462 16.4108C24.1273 16.6044 23.6156 16.7109 24.2114 17.2227C24.5115 17.4838 24.1633 17.5874 23.9878 17.6879C22.9112 18.3082 21.8332 18.9245 20.7536 19.5368C20.5165 19.6704 20.1638 19.7845 20.1413 20.0246C20.1158 20.2962 20.4835 20.3998 20.7131 20.5273C22.7841 21.6814 22.7676 21.6484 25.0653 20.2992C28.8772 18.0616 32.7191 15.8705 36.543 13.6539C38.584 12.4713 40.6131 11.2647 42.6616 10.0956C43.0143 9.89451 43.5275 9.39477 43.8202 9.91553C44.0408 10.3072 43.3429 10.4318 43.0503 10.6014C38.5705 13.2247 34.0713 15.8135 29.5766 18.4053C27.6856 19.4993 25.8007 20.6069 23.8992 21.6844C23.4205 21.956 23.4325 22.1076 23.8992 22.3552C24.4695 22.6554 25.0233 22.9916 25.568 23.3367C25.7359 23.4618 25.939 23.5308 26.1484 23.5337C26.3578 23.5367 26.5627 23.4735 26.7341 23.3532C29.1053 21.9465 31.488 20.5603 33.8822 19.1947C34.1058 19.0686 34.5335 18.4623 34.7421 19.2922C34.7901 19.4888 34.9808 19.3297 35.1053 19.2577C37.6886 17.769 40.2709 16.2802 42.8522 14.7915C44.2719 13.9741 45.6911 13.1536 47.1098 12.3302C47.2186 12.2692 47.3315 12.2155 47.4475 12.1696C47.7341 12.0511 48.0583 12.0931 48.1844 12.3377C48.3614 12.6769 47.9577 12.7099 47.7716 12.8165C43.5375 15.2687 39.2994 17.7144 35.0573 20.1536C34.8787 20.2572 34.6671 20.3668 34.7046 20.5874C34.8547 21.4413 34.1508 21.6034 33.6466 21.9005C31.9357 22.9075 30.2129 23.895 28.4435 24.92C29.1638 25.4783 29.9442 25.8595 30.6946 26.2602C30.9797 26.4103 31.2799 26.3247 31.5515 26.1671C34.8362 24.2562 38.1208 22.3462 41.4055 20.4373C44.524 18.6364 47.6476 16.843 50.7762 15.0571C51.3044 14.757 51.7922 14.2827 52.4795 14.6534V15.1036C50.7146 16.1091 48.9452 17.1086 47.1864 18.1231C42.3689 20.9025 37.5535 23.6859 32.7401 26.4733C32.515 26.6039 32.1548 26.6459 32.1698 26.9866C32.1848 27.3272 32.563 27.3167 32.7701 27.4668C33.3704 27.893 34.2214 28.0761 34.592 28.6959C34.8727 29.1686 34.9537 29.0096 35.2494 28.837C37.2424 27.6694 39.2399 26.5108 41.2419 25.3612C44.446 23.5108 47.6441 21.6529 50.8602 19.8235C51.3629 19.5383 51.8012 19.0476 52.4735 19.1436V20.0441C52.356 20.0767 52.2415 20.1193 52.1313 20.1717C49.4885 21.7054 46.8517 23.2482 44.2059 24.7759C41.1523 26.5398 38.0933 28.2957 35.0288 30.0436C34.8787 30.1321 34.6791 30.2237 34.7001 30.4128C34.7932 31.2427 34.1343 31.4198 33.6091 31.7244C31.8967 32.7164 30.1844 33.7144 28.3925 34.7559C28.9162 35.0561 29.4025 35.2617 29.8002 35.5784C30.5761 36.1952 31.2199 36.0286 32.0243 35.5468C34.6596 33.9545 37.3504 32.4523 40.0188 30.9125C43.1148 29.1251 46.2004 27.3107 49.3114 25.5503C50.3394 24.968 51.2624 24.1756 52.4735 23.934V24.9846C50.2329 26.2587 47.9862 27.5253 45.7516 28.81C41.9647 30.9901 38.1818 33.1767 34.403 35.3698C33.6016 35.8335 32.8047 36.3032 31.9177 36.821C32.3019 37.0281 32.5796 37.1451 32.8182 37.3132C33.4965 37.783 34.2529 38.4763 34.8907 38.5769C35.554 38.6804 36.3675 37.816 37.1193 37.3763C41.5661 34.801 46.0068 32.2122 50.476 29.6684C51.1093 29.3082 51.6766 28.7559 52.4735 28.7199V30.0706C51.3825 30.3197 50.5225 31.0296 49.5845 31.5609C46.8142 33.1216 44.0738 34.7349 41.3199 36.3242C39.2759 37.5023 37.2244 38.6714 35.1819 39.854C34.9102 40.0041 34.6086 40.1797 34.6716 40.5939C34.7061 40.8205 34.5755 40.9555 34.3834 41.0651C33.0678 41.8185 31.7546 42.5749 30.444 43.3342C30.2234 43.4618 29.9938 43.5744 29.7521 43.3928C29.479 43.1902 29.2359 43.3237 28.9928 43.4603C28.6139 43.6986 28.2232 43.9175 27.8222 44.1161C22.9042 46.2757 18.4485 49.2712 13.7856 51.8885C13.7213 51.9262 13.6546 51.9598 13.5861 51.9891C13.3204 52.0956 12.9662 52.4078 12.7862 52.1016C12.555 51.7054 13.0698 51.6769 13.2889 51.5493C16.9778 49.3973 20.6426 47.1972 24.3945 45.1411C25.5966 44.4979 26.7029 43.6897 27.6811 42.7399C29.0318 41.3788 30.8582 40.897 32.2794 39.5884C31.4975 39.1381 30.7306 38.7044 29.9697 38.2572C29.8621 38.1925 29.7368 38.1632 29.6116 38.1734C29.4864 38.1837 29.3676 38.2329 29.2719 38.3142C27.4305 39.5854 25.2949 40.2967 23.3875 41.4553C20.6861 43.0926 17.9292 44.6189 15.1994 46.2007C13.2229 47.3457 11.2524 48.5043 9.27739 49.6524C9.12732 49.7379 8.97725 49.846 8.78666 49.786C8.65159 49.7409 8.4865 49.7034 8.44298 49.5398C8.39946 49.3762 8.56905 49.3372 8.6651 49.2787C9.41547 48.8285 10.1538 48.3783 10.9057 47.946C15.0558 45.5448 19.2079 43.1466 23.3619 40.7514C24.1378 40.3012 24.9827 39.95 25.6791 39.4008C26.4736 38.7787 27.3128 38.2159 28.1899 37.7169C28.469 37.5564 28.454 37.3762 28.1899 37.2172C27.5896 36.8645 26.9893 36.5193 26.389 36.1666C26.1128 36.0016 25.9042 36.1667 25.7001 36.2927C23.3124 37.6719 20.9367 39.0706 18.537 40.4273C18.2819 40.5774 17.7671 41.3277 17.5946 40.2772C17.5465 39.9771 17.2524 40.2187 17.1083 40.3012C14.8672 41.5859 12.6296 42.877 10.3955 44.1746C8.63357 45.1967 6.8792 46.2307 5.11882 47.2542C4.99487 47.338 4.852 47.3896 4.70311 47.4043C4.60299 47.4151 4.50204 47.3933 4.41526 47.3422C4.32848 47.2911 4.26049 47.2134 4.22137 47.1206C4.14183 46.891 4.35794 46.831 4.50051 46.7484C6.34844 45.6739 8.19586 44.6009 10.0428 43.5293C12.4095 42.1622 14.7806 40.8055 17.1458 39.4353C17.422 39.2762 17.7041 39.0976 17.6456 38.6849C17.6036 38.3983 17.7822 38.2437 18.0223 38.1071C19.7281 37.1376 21.429 36.1606 23.1248 35.1762C23.3079 35.0711 23.5931 35.0486 23.5916 34.7604C23.5901 34.4723 23.3019 34.4603 23.1413 34.3102C21.8447 33.1696 20.6936 33.3122 19.2049 34.2322C14.8332 36.9335 10.3324 39.4293 5.88121 42.0031C4.24689 42.9485 2.60206 43.876 0.978247 44.8395C0.625571 45.0496 0.322424 44.9671 -0.0107422 44.88V44.2797C0.299913 44.2572 0.552032 44.0846 0.807159 43.936C3.23537 42.5328 5.65459 41.1146 8.0813 39.7099C11.9472 37.4708 15.8167 35.2372 19.6896 33.0091C20.1729 32.7299 20.0873 32.5183 19.6686 32.2797C19.1298 31.972 18.6001 31.6494 18.0628 31.3387C17.8422 31.2112 17.6291 31.0911 17.6381 30.785C17.6516 30.2912 17.3965 30.4848 17.1774 30.6124C15.9768 31.3077 14.7762 32.0036 13.5756 32.6999C9.8612 34.855 6.15884 37.0311 2.42647 39.1531C1.64008 39.6034 0.925723 40.2037 -0.00474248 40.3898V39.3392C0.116093 39.3169 0.23394 39.2806 0.346437 39.2312C2.0723 38.2467 3.79565 37.2577 5.51651 36.2642C9.30141 34.0791 13.0853 31.892 16.8682 29.7029C17.1458 29.5423 17.578 29.4238 17.5946 29.1206C17.6351 28.4078 18.1858 28.2607 18.6451 27.9951C20.2329 27.0696 21.8247 26.1511 23.4205 25.2397C23.8182 25.0131 23.8212 24.863 23.4205 24.6394C22.8547 24.3287 22.2874 24.0136 21.7561 23.6504C21.2729 23.3202 20.8467 23.3592 20.3935 23.6774C19.574 24.2537 18.7021 24.7429 17.8812 25.3282C16.4105 26.3788 14.7731 27.1877 13.2049 28.0956C10.1733 29.8485 7.15234 31.6194 4.10581 33.3482C2.75514 34.1181 1.45849 35.0141 0.00125722 35.5994V34.3988C1.59655 33.7009 3.03277 32.7164 4.54103 31.8625C7.30691 30.2957 10.0713 28.7274 12.7952 27.0841C15.0628 25.7139 17.458 24.5899 19.7721 23.3127C19.9357 23.2212 20.1773 23.1852 20.1698 22.9255C20.1623 22.6659 19.9522 22.6134 19.7766 22.5203C19.5684 22.4377 19.3701 22.332 19.1854 22.2052C18.5851 21.6814 17.437 21.6559 17.6351 20.3547C16.8157 20.8245 16.1223 21.3242 15.3539 21.6379C14.374 22.0371 13.8442 22.9586 12.9527 23.4598C9.89571 25.1647 6.88821 26.958 3.84318 28.6869C2.57355 29.4073 1.37294 30.2552 0.0102614 30.8075L-0.000235836 29.4763ZM23.401 31.864C24.1633 32.3142 24.7817 32.6819 25.3955 33.0541C25.8712 33.3407 26.3079 33.4728 26.8227 33.0646C27.2249 32.7449 27.7231 32.5468 28.1733 32.2902C29.3394 31.6314 30.5115 30.9816 31.6596 30.2927C31.8487 30.1801 32.41 29.9926 32.0123 29.6924C31.3115 29.1776 30.5567 28.7408 29.7611 28.3898C29.2869 28.1692 28.9567 28.6899 28.589 28.8895C26.8887 29.826 25.2079 30.8195 23.401 31.864ZM22.3804 31.2637C22.9387 31.2997 23.2239 30.9771 23.5615 30.7835C25.1088 29.895 26.6441 28.9826 28.1959 28.1031C28.6761 27.83 28.6371 27.6529 28.1839 27.4083C27.7036 27.1516 27.2294 26.877 26.7777 26.5754C26.3259 26.2737 25.9778 26.3277 25.541 26.5904C24.1198 27.4488 22.6776 28.2727 21.2384 29.1011C20.8347 29.3337 20.1789 29.4793 20.1578 29.895C20.1368 30.3107 20.8422 30.3452 21.1994 30.5884C21.6031 30.866 22.0128 31.1436 22.3804 31.2607V31.2637Z" fill="#232A36"></path><path d="M26.1744 59.9998C26.1519 59.7537 26.1114 59.5076 26.1084 59.2615C26.1084 58.6837 26.1684 58.1734 26.7732 57.8312C29.7987 56.1174 32.8062 54.3705 35.8182 52.6341C38.9198 50.8462 42.0174 49.0578 45.1109 47.269C47.3275 45.9903 49.5501 44.7177 51.7592 43.433C52.1089 43.2289 52.1689 43.313 52.2094 43.6657C52.31 44.7162 52.1884 44.9113 51.2715 45.4365C48.1904 47.2044 45.1184 48.9963 42.0464 50.7702C38.9268 52.5711 35.8032 54.365 32.6757 56.1519C30.7247 57.279 28.7617 58.4135 26.8017 59.5391C26.7096 59.5769 26.6302 59.6404 26.5733 59.7221C26.5163 59.8039 26.4841 59.9003 26.4806 59.9998H26.1744Z" fill="#232A36"></path><path d="M-0.000450909 24.5403C1.82296 23.6624 3.51731 22.5518 5.28069 21.5644C6.31321 20.9866 7.33221 20.3803 8.34372 19.7635C8.72041 19.5323 9.06407 19.8415 9.41975 19.7529L9.7199 19.903C9.7199 19.954 9.7199 20.0036 9.7199 20.0531C9.54582 20.1626 9.56983 20.3382 9.56983 20.5033L2.7054 24.5358C2.14862 24.863 1.59335 25.1916 1.03056 25.5068C0.707902 25.6869 0.398747 25.918 -0.00195312 25.8895L-0.000450909 24.5403Z" fill="#232A36"></path><path d="M0 19.6014C1.12706 19.0882 2.17608 18.4323 3.22811 17.7855C3.85692 17.3998 4.47374 17.0757 5.23312 17.3563C5.26251 17.4084 5.30678 17.4505 5.36025 17.4772C5.41373 17.5039 5.47398 17.5141 5.53327 17.5064C5.65483 17.829 5.58579 18.0617 5.26613 18.2447C3.69634 19.1452 2.13557 20.0456 0.571786 20.9596C0.400572 21.0622 0.202203 21.1104 0.00299527 21.0977L0 19.6014Z" fill="#232A36"></path><path d="M0 14.6641C0.501251 14.8427 1.26964 14.9237 1.26663 15.4895C1.26363 16.0553 0.495248 16.1228 0 16.3089V14.6641Z" fill="#232A36"></path><path d="M26.6244 0C26.5899 0.138069 26.6979 0.385698 26.4413 0.361686C26.2912 0.346678 26.3392 0.132066 26.3242 0H26.6244Z" fill="#232A36"></path><path d="M21.2119 56.868L23.9133 55.2937C24.5356 54.9315 25.1579 54.5694 25.7802 54.2072C25.8657 54.1577 26.0053 54.1186 26.0248 54.0481C26.367 52.8055 27.5796 52.6044 28.4695 52.0701C31.5971 50.1912 34.7727 48.3873 37.9348 46.5624C40.9453 44.8245 43.9588 43.0911 46.9753 41.3622C48.3965 40.5443 49.8087 39.7114 51.2329 38.9025C51.5106 38.7434 51.7702 38.3728 52.1334 38.6024C52.3645 38.7524 52.1514 39.917 51.8722 40.0926C51.1369 40.5528 50.393 41.0031 49.6406 41.4433C43.5126 44.9861 37.3835 48.5258 31.2534 52.0626C29.7527 52.9315 28.2294 53.7795 26.7167 54.6364C26.5066 54.755 26.3325 55.0641 26.0983 54.5959C25.9753 54.3527 25.7081 54.6334 25.5311 54.7339C24.3004 55.4348 23.0758 56.1446 21.8452 56.844C21.7569 56.9169 21.6471 56.9587 21.5326 56.9631C21.4182 56.9674 21.3055 56.934 21.2119 56.868Z" fill="#232A36"></path><path d="M16.7803 54.4908C18.2645 53.6248 19.5852 52.8519 20.9088 52.0896C22.5417 51.1441 24.3861 50.4387 25.7668 49.2096C28.2985 46.9585 31.3946 45.7159 34.2025 43.972C37.0539 42.2041 39.9954 40.5998 42.8948 38.919C45.6442 37.3252 48.3916 35.7284 51.1369 34.1286C51.1971 34.0841 51.2647 34.0506 51.3366 34.0295C51.6202 33.9905 51.9579 33.4653 52.1349 33.8795C52.285 34.2366 52.4351 34.8369 51.8963 35.1566C50.7257 35.8569 49.5481 36.5483 48.3636 37.2306C44.9899 39.1816 41.6137 41.1296 38.235 43.0746L29.8473 47.9115C28.8148 48.5118 27.7312 49.031 26.7678 49.7124C26.3175 50.029 25.9979 49.5863 25.5417 49.8625C23.1119 51.3632 20.6162 52.7514 18.1399 54.1726C17.7888 54.3857 17.4706 54.7054 16.7803 54.4908Z" fill="#232A36"></path><path d="M9.72203 19.8999L9.42188 19.7498C10.8446 18.6993 12.4384 17.9369 13.9571 17.0485C19.0147 14.09 24.0842 11.152 29.1658 8.23457C31.0357 7.15403 32.9176 6.09751 34.7981 5.02897C34.9796 4.92692 35.1898 4.65379 35.3458 4.97645C35.5019 5.29911 35.1282 5.3006 34.9617 5.39665C29.3368 8.66328 23.7095 11.9254 18.0797 15.1831C15.4374 16.7118 12.7916 18.2366 10.1422 19.7573C10.0071 19.8183 9.86637 19.8661 9.72203 19.8999Z" fill="#232A36"></path><path d="M5.53062 17.5062C5.47133 17.5139 5.41108 17.5038 5.35761 17.477C5.30413 17.4503 5.25986 17.4082 5.23047 17.3561C5.96884 16.6733 6.9038 16.3056 7.75173 15.8103C11.2035 13.7843 14.6552 11.7928 18.1249 9.79684C21.5016 7.84887 24.8803 5.9049 28.261 3.96493C28.9919 3.54472 29.7152 3.10949 30.4446 2.68478C30.6682 2.55422 30.8678 2.31709 31.237 2.51069C30.6172 3.09748 29.8548 3.39915 29.1659 3.80135C25.7172 5.82136 22.2595 7.82585 18.7928 9.81485C15.0729 11.9609 11.3495 14.102 7.62267 16.2381C6.91881 16.6463 6.22847 17.083 5.53062 17.5062Z" fill="#232A36"></path><path d="M0.794291 15.2626C0.735003 15.2704 0.674756 15.2602 0.621279 15.2335C0.567803 15.2067 0.523534 15.1646 0.494141 15.1126C1.23251 14.4297 2.16748 14.062 3.0154 13.5668C6.46713 11.5408 9.91886 9.54928 13.3886 7.55329C16.7653 5.60531 20.144 3.66132 23.5247 1.72135C24.2555 1.30114 24.9789 0.86594 25.7083 0.441228C25.9319 0.310662 26.1315 0.0735373 26.5007 0.265633C25.8793 0.853927 25.1185 1.15558 24.4296 1.55778C20.9809 3.57779 17.5232 5.5823 14.0564 7.57129C10.3366 9.71737 6.6132 11.8584 2.88634 13.9945C2.18399 14.4027 1.49364 14.8394 0.794291 15.2626Z" fill="#232A36"></path><path d="M39.1846 7.92827V7.32797C39.2133 7.28744 39.2526 7.25559 39.2982 7.23593C39.3438 7.21628 39.3939 7.20957 39.4431 7.21655C39.4922 7.22353 39.5385 7.24391 39.5768 7.27548C39.6152 7.30705 39.644 7.34858 39.6603 7.3955C39.7293 7.73166 39.3617 7.76169 39.1846 7.92827Z" fill="#232A36"></path><path d="M8.62598 10.6254C8.84509 10.2923 8.97415 10.1872 9.21277 10.2652C9.16474 10.5519 8.96064 10.5309 8.62598 10.6254Z" fill="#232A36"></path><path d="M9.69922 9.90042C9.91533 9.70983 10.0369 9.55525 10.2695 9.69632C10.1585 9.91093 10.0204 10.022 9.69922 9.90042Z" fill="#232A36"></path><path d="M5.84375 12.3362C5.9503 11.907 6.1439 11.907 6.31798 11.856C6.38552 12.2341 6.10488 12.1396 5.84375 12.3362Z" fill="#232A36"></path><path d="M2.58446 14.1265C2.35785 14.4101 2.21227 14.4882 1.99316 14.4267C2.08771 14.14 2.2678 14.122 2.58446 14.1265Z" fill="#232A36"></path><path d="M20.8968 3.51487C20.8128 3.79551 20.6477 3.84353 20.3926 3.81502C20.4721 3.52987 20.6387 3.48335 20.8968 3.51487Z" fill="#232A36"></path><path d="M14.1565 7.43187C14.138 7.51998 14.0887 7.5986 14.0175 7.65361C13.9462 7.70863 13.8577 7.73644 13.7678 7.73202C13.7423 7.73202 13.6702 7.59996 13.6807 7.58195C13.7319 7.50745 13.8066 7.45221 13.8928 7.42502C13.979 7.39783 14.0718 7.40024 14.1565 7.43187Z" fill="#232A36"></path><path d="M23.7392 1.86855C23.6551 2.15069 23.4885 2.19721 23.2334 2.1687C23.3234 1.88806 23.4735 1.83703 23.7392 1.86855Z" fill="#232A36"></path><path d="M17.0601 5.67285C16.898 6.01952 16.7599 6.11407 16.5078 6.04503C16.5543 5.7809 16.7509 5.78091 17.0601 5.67285Z" fill="#232A36"></path><path d="M24.8325 1.24268C24.6704 1.52632 24.5323 1.62086 24.2832 1.55783C24.3447 1.2892 24.5233 1.26219 24.8325 1.24268Z" fill="#232A36"></path><path d="M17.4912 5.4896C17.6533 5.20596 17.7914 5.11139 18.0405 5.17442C17.9805 5.44306 17.8004 5.47159 17.4912 5.4896Z" fill="#232A36"></path><path d="M3.00195 13.9827C3.10701 13.552 3.3021 13.5535 3.47619 13.501C3.54522 13.8852 3.26308 13.7861 3.00195 13.9827Z" fill="#232A36"></path><path d="M12.9486 8.16109C12.875 8.23162 12.833 8.30066 12.779 8.31116C12.725 8.32167 12.6739 8.26615 12.6289 8.24063C12.6679 8.19411 12.6994 8.12357 12.749 8.10706C12.7985 8.09056 12.8555 8.13558 12.9486 8.16109Z" fill="#232A36"></path><path d="M9.57179 20.4986C9.57179 20.335 9.54478 20.1594 9.72186 20.0483C9.80441 20.2449 9.96649 20.461 9.57179 20.4986Z" fill="#232A36"></path><path d="M8.03547 10.8296C8.07749 10.8491 8.14202 10.8581 8.15403 10.8881C8.15644 10.9102 8.15299 10.9325 8.14403 10.9528C8.13507 10.973 8.12092 10.9906 8.10301 11.0037C8.07299 11.0142 8.02197 10.9737 7.98145 10.9556L8.03547 10.8296Z" fill="#232A36"></path><path d="M7.11511 11.484C7.0971 11.526 7.0881 11.5905 7.05808 11.6025C7.02807 11.6145 6.97704 11.574 6.93652 11.556C6.95453 11.514 6.96204 11.4495 6.99205 11.4374C7.02207 11.4254 7.07459 11.4615 7.11511 11.484Z" fill="#232A36"></path><path d="M4.14635 13.0806L4.27091 13.1331C4.2529 13.1751 4.2439 13.2396 4.21388 13.2517C4.18387 13.2637 4.13284 13.2231 4.09082 13.2051C4.11333 13.1631 4.12684 13.1211 4.14635 13.0806Z" fill="#232A36"></path><path d="M10.8252 9.31794C10.8432 9.27592 10.8522 9.2114 10.8822 9.19939C10.9122 9.18738 10.9633 9.2294 11.0053 9.24741C10.9858 9.28793 10.9768 9.35246 10.9468 9.36447C10.9167 9.37647 10.8672 9.33595 10.8252 9.31794Z" fill="#232A36"></path><path d="M12.0678 8.64003C12.0498 8.68205 12.0408 8.74657 12.0107 8.75857C11.9807 8.77058 11.9297 8.73007 11.8877 8.71206C11.9057 8.67004 11.9147 8.6055 11.9447 8.59349C11.9747 8.58149 12.0183 8.62202 12.0678 8.64003Z" fill="#232A36"></path><path d="M21.6283 3.10061C21.6103 3.14263 21.6013 3.20717 21.5713 3.21917C21.5413 3.23118 21.4903 3.18915 21.4482 3.17114C21.4678 3.13062 21.4768 3.06608 21.5068 3.05408C21.5368 3.04207 21.5863 3.0796 21.6283 3.10061Z" fill="#232A36"></path><path d="M14.8998 6.99177C14.8803 7.03229 14.8713 7.09683 14.8413 7.10884C14.8113 7.12084 14.7602 7.08033 14.7197 7.06232C14.7377 7.0203 14.7467 6.95576 14.7768 6.94376C14.8068 6.93175 14.8578 6.98127 14.8998 6.99177Z" fill="#232A36"></path><path d="M22.4902 2.58405C22.5082 2.54203 22.5173 2.47751 22.5488 2.4655C22.5803 2.4535 22.6283 2.49551 22.6703 2.51352C22.6523 2.55554 22.6433 2.62008 22.6133 2.63208C22.5833 2.64409 22.5323 2.60206 22.4902 2.58405Z" fill="#232A36"></path><path d="M15.9466 6.47589C15.9031 6.49239 15.8521 6.53142 15.8221 6.51791C15.792 6.5044 15.786 6.43987 15.7695 6.39784C15.8116 6.38134 15.8641 6.34231 15.8941 6.35582C15.9241 6.36933 15.9301 6.43236 15.9466 6.47589Z" fill="#232A36"></path><path d="M25.5204 0.859736C25.5024 0.901757 25.4934 0.964793 25.4634 0.976799C25.4334 0.988805 25.3823 0.948294 25.3418 0.930285C25.3598 0.889765 25.3688 0.825228 25.3973 0.813222C25.4258 0.801216 25.4784 0.841727 25.5204 0.859736Z" fill="#232A36"></path><path d="M18.7326 4.88068C18.6906 4.86267 18.6261 4.85366 18.6141 4.82365C18.6116 4.80175 18.6149 4.7796 18.6236 4.75935C18.6323 4.7391 18.646 4.72143 18.6636 4.70809C18.6855 4.70519 18.7078 4.70828 18.7282 4.71699C18.7485 4.72571 18.7661 4.73974 18.7791 4.75762C18.7911 4.79064 18.7506 4.84166 18.7326 4.88068Z" fill="#232A36"></path></g><defs><clipPath id="clip0_8584_1815"><rect width="52.4962" height="60" fill="white"></rect></clipPath></defs></svg> 