<?xml version="1.0" encoding="UTF-8"?> <svg xmlns="http://www.w3.org/2000/svg" width="60" height="60" viewBox="0 0 60 60" fill="none"><g clip-path="url(#clip0_8521_4686)"><path d="M10.3613 60L19.0552 44.9702L27.7253 30.0119L36.3478 14.9821L37.7769 12.6002L38.42 14.9821L41.0639 24.867L38.0865 30.0119L29.4164 44.9702L20.794 60H31.179L39.8491 44.9702L44.3509 37.2052L46.447 44.9702L50.4724 60H59.7856L55.7602 44.9702L51.7586 30.0119L50.6868 26.1294L57.1417 14.9821H47.7332L47.4236 13.8626L44.1366 1.59587L43.7078 0H34.6566L34.4422 0.309647L25.9865 14.9821L17.2926 30.0119L8.67011 44.9702L0 60H10.3613Z" fill="black"></path></g><defs><clipPath id="clip0_8521_4686"><rect width="59.7856" height="60" fill="white"></rect></clipPath></defs></svg> 