<?xml version="1.0" encoding="UTF-8"?> <svg xmlns="http://www.w3.org/2000/svg" width="48" height="45" viewBox="0 0 48 45" fill="none"><path d="M23.2187 12.9302C27.4478 13.7955 31.6162 14.5126 35.7116 15.5457C39.022 16.3746 42.1403 17.7771 44.7045 20.1641C45.2952 20.7167 45.813 21.3424 46.2455 22.0261C47.4607 23.9707 47.2031 26.0878 45.5382 27.6532C43.5111 29.5541 40.9445 30.3076 38.3049 30.8302C38.0279 30.8837 37.6706 30.5167 37.3498 30.3441C37.622 30.0159 37.8359 29.5346 38.1737 29.3864C39.9456 28.6255 41.8632 28.1418 43.5208 27.1987C45.9514 25.8375 46.1166 23.9998 44.25 21.9045C42.3348 19.746 39.7876 18.5817 37.1529 17.6142C32.4401 15.8835 27.5207 15.164 22.543 14.8067C22.2975 14.8063 22.0545 14.8576 21.8301 14.9573C21.6056 15.057 21.4047 15.2028 21.2403 15.3852C19.8257 17.2569 18.4662 19.1699 17.1619 21.1242C17.0335 21.3348 16.9506 21.5698 16.9183 21.8142C16.8861 22.0587 16.9053 22.3072 16.9747 22.5438C19.3493 28.3484 22.3219 33.8128 26.5145 38.5284C27.559 39.7115 28.7423 40.7643 30.0387 41.6641C32.2651 43.1979 33.7915 42.5003 34.3067 39.8629C34.8512 37.0627 34.4866 34.2916 33.9276 31.5449C33.0575 27.2813 31.5627 23.2244 29.7665 19.2744C29.6158 18.9414 29.3679 18.6133 29.3509 18.273C29.3339 17.9327 29.5283 17.5194 29.6304 17.1427C29.9853 17.3104 30.5249 17.3857 30.661 17.6653C31.4169 19.1845 32.1193 20.7329 32.7512 22.3104C34.4283 26.5813 35.9109 30.925 36.0349 35.558C36.1103 37.4125 35.9195 39.2682 35.4685 41.0686C34.7272 43.8323 32.6491 44.7366 30.1092 43.4021C28.507 42.5456 27.0495 41.4423 25.7902 40.1327C21.9986 36.2168 19.4709 31.4404 17.0841 26.6032C16.6344 25.6989 16.2188 24.7801 15.6938 23.6692C13.5064 28.1515 11.3554 32.4588 11.1001 37.3811C10.9446 40.4074 12.6192 41.4429 15.373 40.1692C15.9227 39.9116 16.4488 39.6066 16.9455 39.2576C17.8059 38.6548 18.5983 37.945 19.4927 37.3981C19.8792 37.155 20.4455 37.2207 20.9292 37.155C20.7882 37.5999 20.7882 38.2392 20.4844 38.4604C18.8608 39.6417 17.2834 41.0078 15.4629 41.7686C12.0335 43.2028 9.38664 41.3991 9.59081 37.7093C9.76965 35.1758 10.2862 32.6775 11.1269 30.2809C12.014 27.6508 13.4043 25.1933 14.4956 22.6264C14.7219 22.0547 14.7627 21.4263 14.6123 20.8301C14.0897 18.9268 13.4432 17.06 12.8185 15.1033C9.91406 15.5238 7.10923 16.2166 4.61066 17.8184C2.00514 19.4932 1.82529 21.5545 4.28498 23.4505C5.74329 24.5735 7.4641 25.3562 9.0731 26.2799C9.38664 26.4622 9.80226 26.5229 10.0453 26.766C10.2884 27.0091 10.337 27.4223 10.4731 27.7602C10.1255 27.8769 9.70017 28.188 9.44497 28.0811C6.90507 27.0164 4.35789 25.9201 2.44507 23.8345C0.349967 21.5448 0.563852 19.0484 3.00652 17.1038C5.386 15.2078 8.24186 14.4421 11.1463 13.8271C11.5765 13.7348 12.0116 13.6618 12.5293 13.5622C12.3713 12.3468 12.0894 11.1898 12.104 10.04C12.1258 8.07111 12.104 6.04872 12.522 4.14787C13.1491 1.37195 15.6039 0.317005 18.1851 1.50321C20.6156 2.6165 22.317 4.59756 23.8968 6.6637C24.067 6.8849 23.8968 7.37105 23.8774 7.73323C23.4909 7.6676 22.9781 7.73323 22.7399 7.5096C21.5246 6.37444 20.4066 5.15663 19.2375 3.98258C19.0027 3.75999 18.7443 3.56357 18.4671 3.39677C16.0001 1.80706 14.2939 2.52413 13.7154 5.38999C13.3581 7.15714 13.6012 11.3769 14.1383 13.1295C16.3841 13.1295 18.6007 13.1635 20.8125 13.093C21.1479 13.093 21.4882 12.5923 21.7847 12.2909C24.2007 9.90389 26.5364 7.42938 29.0471 5.14934C30.4458 3.83123 32.2395 3.01032 34.1512 2.81339C36.8418 2.57031 38.7084 4.00932 38.582 6.70259C38.4775 8.97048 37.7945 11.2141 37.2841 13.4504C37.2234 13.7177 36.64 13.866 36.3119 14.0726C36.188 13.6691 35.8963 13.234 35.9668 12.8718C36.2876 11.2481 36.764 9.65596 37.0727 8.02978C37.1672 7.34948 37.1376 6.65766 36.9852 5.98795C36.7907 4.94516 36.0592 4.23538 35.0408 4.37393C33.789 4.54408 32.4523 4.8139 31.3804 5.43374C28.0652 7.31514 25.5885 10.1713 23.2187 12.9302ZM19.6215 14.8383H14.4008C14.9331 16.6444 15.4022 18.2195 15.9272 19.9964L19.6215 14.8383Z" fill="#2DAF77" stroke="#2DAF77"></path><path d="M20.8836 22.5C20.8741 22.086 20.9483 21.6743 21.102 21.2897C21.2556 20.9052 21.4855 20.5557 21.7777 20.2623C22.07 19.9689 22.4185 19.7377 22.8024 19.5825C23.1864 19.4273 23.5977 19.3515 24.0117 19.3595C24.8459 19.3594 25.6463 19.6894 26.2382 20.2772C26.8302 20.8651 27.1656 21.6633 27.1714 22.4976C27.1513 23.3314 26.8126 24.1258 26.2249 24.7176C25.6373 25.3094 24.8453 25.6536 24.0117 25.6794C23.1758 25.6711 22.3773 25.3318 21.791 24.7359C21.2047 24.14 20.8784 23.336 20.8836 22.5Z" fill="#2DAF77" stroke="#2DAF77"></path></svg> 