<?xml version="1.0" encoding="UTF-8"?> <svg xmlns="http://www.w3.org/2000/svg" width="42" height="43" viewBox="0 0 42 43" fill="none"><g clip-path="url(#clip0_5071_3656)"><path d="M21.1063 0C21.6692 0.0470983 22.2337 0.0852255 22.7951 0.144285C27.7227 0.657133 31.9661 2.65071 35.5251 6.12502C38.8426 9.36957 40.8963 13.3124 41.6624 17.9063C41.8642 19.1152 41.9287 20.3532 41.9732 21.5807C42.0244 23.0094 41.9836 24.4425 41.9851 25.8734C41.9895 31.1993 41.9942 36.5254 41.9991 41.8517V42.3189C41.8508 42.3264 41.7336 42.3376 41.6142 42.3376C39.0458 42.3376 36.4767 42.3339 33.9083 42.3451C33.645 42.3451 33.5204 42.2651 33.4203 42.0199C33.0798 41.1819 32.7127 40.3543 32.3448 39.4983C31.882 39.7719 31.4437 40.0433 30.9935 40.2945C28.0411 41.9577 24.7328 42.875 21.3518 42.9679C21.0685 42.9761 20.7837 42.9753 20.5019 42.9993C20.249 43.0217 20.1666 42.9103 20.1918 42.6755C20.1952 42.6133 20.1952 42.5509 20.1918 42.4887V29.4439C22.8322 29.5112 25.0127 28.5879 26.6985 26.5821C27.9682 25.0705 28.5653 23.3002 28.5319 21.3168C28.4577 17.1199 24.9363 13.3826 20.2156 13.5651C20.2074 13.4372 20.1926 13.3071 20.1926 13.1771C20.1926 8.92126 20.1926 4.66522 20.1926 0.408933C20.1926 0.272124 20.2089 0.136062 20.2178 0H21.1063Z" fill="#DC972F"></path><path d="M12.4235 14.4352C12.4235 18.2295 12.4235 22.0236 12.4235 25.8173C12.4235 26.7242 11.5832 27.2976 10.7918 26.935C10.6034 26.8539 10.4411 26.7215 10.3232 26.5526C10.2053 26.3837 10.1364 26.185 10.1243 25.9788C10.109 25.8183 10.1018 25.6571 10.1028 25.4959C10.1028 18.1067 10.1028 10.718 10.1028 3.32977C10.0983 3.1682 10.1058 3.00653 10.1251 2.84608C10.2252 2.15829 10.7125 1.75609 11.3763 1.79945C11.9844 1.84131 12.4235 2.34295 12.4235 3.01578C12.4235 5.85214 12.4235 8.68826 12.4235 11.5241V14.4352Z" fill="#DC972F"></path><path d="M0.00242246 21.5068C0.00242246 18.9809 0.00242246 16.4548 0.00242246 13.9284C0.00242246 13.3573 0.27981 12.9409 0.756704 12.7607C1.20764 12.5903 1.74535 12.6949 2.02793 13.0919C2.2007 13.3294 2.30072 13.6127 2.31569 13.9068C2.33299 18.972 2.33645 24.0369 2.32607 29.1016C2.32607 29.8335 1.84769 30.3142 1.1572 30.3127C0.466704 30.3112 0.00390652 29.82 0.00316486 29.0859C-0.000790716 26.558 -0.00103866 24.0317 0.00242246 21.5068Z" fill="#DC972F"></path><path d="M5.05493 28.9363C5.05493 26.4747 5.05493 24.0127 5.05493 21.5501C5.05493 20.6724 5.70686 20.1244 6.50193 20.3173C6.97512 20.4317 7.31776 20.8406 7.37487 21.3572C7.38096 21.4318 7.38295 21.5067 7.38081 21.5815C7.38081 26.4932 7.38081 31.4048 7.38081 36.3165C7.38081 37.2772 6.61021 37.864 5.78548 37.5448C5.31526 37.3624 5.05642 36.934 5.05568 36.3233C5.05469 33.8602 5.05444 31.3979 5.05493 28.9363Z" fill="#DC972F"></path><path d="M15.1667 7.62016C15.1667 5.6054 15.1608 3.59064 15.1667 1.57588C15.1667 0.718392 15.9447 0.171902 16.7175 0.459725C16.9349 0.535551 17.1233 0.678029 17.2563 0.867193C17.3893 1.05636 17.4602 1.28273 17.4592 1.51458C17.4637 5.59344 17.4637 9.6728 17.4592 13.7527C17.4592 14.3941 16.9519 14.8561 16.3052 14.8539C15.6377 14.8539 15.1697 14.3941 15.1667 13.7018C15.1667 11.6751 15.1667 9.64763 15.1667 7.62016Z" fill="#DC972F"></path><path d="M17.4658 35.4112C17.4658 37.426 17.4658 39.44 17.4658 41.4547C17.4717 41.7285 17.3811 41.9954 17.2101 42.2082C17.0391 42.4209 16.7988 42.5656 16.5319 42.6167C16.2651 42.6677 15.9889 42.6217 15.7525 42.4868C15.5161 42.352 15.3348 42.137 15.2408 41.8801C15.1882 41.7152 15.1632 41.5427 15.1667 41.3695C15.1632 37.4023 15.1632 33.4353 15.1667 29.4686C15.1667 28.6829 15.6035 28.2171 16.32 28.2186C17.0364 28.2201 17.4658 28.7008 17.4658 29.4806C17.4688 31.4572 17.4688 33.4341 17.4658 35.4112Z" fill="#DC972F"></path><path d="M5.05691 11.2056C5.05691 9.73886 5.05691 8.27158 5.05691 6.80381C5.05691 6.03379 5.54493 5.48431 6.21614 5.4888C6.90441 5.4888 7.38205 6.02333 7.38279 6.80232C7.38279 9.73686 7.38279 12.6714 7.38279 15.606C7.38279 16.3887 6.90812 16.8933 6.19612 16.8851C5.50562 16.8761 5.05617 16.3782 5.05469 15.6082C5.05469 14.1407 5.05691 12.6732 5.05691 11.2056Z" fill="#DC972F"></path><path d="M12.4255 35.7245C12.4255 37.0307 12.4255 38.3365 12.4255 39.6418C12.4255 40.3595 11.9894 40.8589 11.3323 40.9053C10.7026 40.9494 10.1894 40.4732 10.1078 39.7667C10.1028 39.7298 10.1001 39.6926 10.0996 39.6553C10.0996 37.0312 10.093 34.4079 10.1041 31.7839C10.1041 31.0752 10.5313 30.5967 11.1335 30.5399C11.7358 30.4831 12.2408 30.8195 12.3877 31.4019C12.4161 31.535 12.4285 31.671 12.4248 31.8071C12.4253 33.1129 12.4255 34.4187 12.4255 35.7245Z" fill="#DC972F"></path></g><defs><clipPath id="clip0_5071_3656"><rect width="42" height="43" fill="white"></rect></clipPath></defs></svg> 