<?xml version="1.0" encoding="UTF-8"?> <svg xmlns="http://www.w3.org/2000/svg" width="70" height="15" viewBox="0 0 70 15" fill="none"><g clip-path="url(#clip0_5071_3571)"><path d="M38.3984 0.0256462C38.5264 0.018864 38.6313 0.00906966 38.7362 0.00906966C40.7119 0.00906966 42.6891 -0.0127967 44.6619 0.0150858C46.5923 0.0422147 48.3762 0.568976 49.8646 1.92693C51.2941 3.23137 52.0027 4.91336 52.1271 6.87719C52.2334 8.54561 51.9567 10.1296 51.077 11.5531C49.9027 13.4529 48.1728 14.4507 46.0878 14.8131C45.4257 14.9166 44.7571 14.9669 44.0877 14.9639C42.3283 14.9834 40.566 14.9706 38.8081 14.9706H38.3984V0.0256462ZM41.6391 12.2984C42.7574 12.2984 43.8203 12.3203 44.8826 12.2924C45.3812 12.284 45.8732 12.17 46.3288 11.9572C46.7844 11.7444 47.1943 11.4373 47.5338 11.0543C48.581 9.90958 48.9037 8.51246 48.7844 6.96386C48.5932 4.47705 46.8044 2.69935 44.429 2.66845C43.6507 2.65866 42.8723 2.68427 42.0947 2.65789C41.7425 2.64659 41.6268 2.73325 41.6297 3.13039C41.6477 6.03016 41.6391 8.92918 41.6391 11.829V12.2984Z" fill="#2466D6"></path><path d="M16.8032 10.0309C16.6473 9.93748 16.5337 9.87116 16.4209 9.80485C15.0029 8.94501 14.2878 7.62701 14.1275 5.94426C14.0477 5.11532 14.0772 4.28638 14.3079 3.48381C14.811 1.73852 16.0062 0.763402 17.6261 0.329341C18.3092 0.144909 19.0102 0.0437621 19.7154 0.0279088C21.8586 -0.0105237 24.0024 0.0128225 26.1463 0.0128225C26.2182 0.0128225 26.2865 0.0211259 26.3864 0.0271545V14.9518H23.1738V10.7468H22.6987C21.8126 10.7468 20.9264 10.7566 20.0395 10.74C19.7873 10.7355 19.6565 10.8297 19.5364 11.0543C18.8846 12.2675 18.2104 13.4657 17.5629 14.682C17.4386 14.9141 17.2991 14.9834 17.0598 14.9834C16.0903 14.9699 15.1193 14.9782 14.1498 14.9782H13.7344C14.7765 13.2924 15.7791 11.6782 16.8032 10.0309ZM23.1228 7.64734C23.1335 7.62549 23.1537 7.60364 23.1537 7.58179C23.1601 6.02489 23.163 4.468 23.1702 2.9096C23.1702 2.69859 23.0595 2.66544 22.8935 2.66695C21.7436 2.67674 20.5936 2.6481 19.4437 2.70236C18.6568 2.73929 17.9345 3.01359 17.4896 3.77546C16.5718 5.35798 17.4134 7.39263 19.1534 7.59459C20.4542 7.74531 21.7795 7.65262 23.094 7.66995C23.1048 7.6692 23.1134 7.65488 23.1228 7.64734Z" fill="#2466D6"></path><path d="M54.2109 14.9706C54.2828 14.7747 54.3317 14.6353 54.3877 14.5004C56.3646 9.78295 58.3399 5.0648 60.3134 0.345889C60.422 0.0859046 60.5477 -0.00377655 60.8165 0.00149851C61.6912 0.020338 62.5658 0.0233523 63.4398 0.00149851C63.7273 -0.00528371 63.8581 0.0889137 63.9695 0.359449C65.8132 4.83722 67.6629 9.31198 69.5185 13.7837C69.6745 14.1605 69.8276 14.5373 70.0051 14.9721C69.1951 14.9721 68.4347 14.9759 67.6744 14.9721C67.3057 14.9721 66.8543 15.0806 66.5913 14.8967C66.3455 14.7264 66.2959 14.2396 66.1644 13.89C65.9538 13.3308 65.7331 12.7739 65.542 12.208C65.4622 11.9736 65.3565 11.8794 65.1064 11.8809C63.0696 11.892 61.0333 11.892 58.9975 11.8809C58.7531 11.8809 58.6381 11.9563 58.5512 12.1974C58.2637 13.0203 57.946 13.8334 57.655 14.6556C57.5737 14.8862 57.4724 14.9842 57.2194 14.9796C56.2341 14.9593 55.2523 14.9706 54.2109 14.9706ZM62.1166 3.41145H62.016C61.2592 5.33533 60.5068 7.25923 59.732 9.2208H64.3647C63.5972 7.25245 62.8548 5.33157 62.1116 3.41145H62.1166Z" fill="#2466D6"></path><path d="M10.2246 0.0294189V2.65337H3.28199V6.46875H10.1988V9.24193C10.0622 9.24946 9.92422 9.26301 9.78551 9.26301C7.75015 9.26301 5.71479 9.27282 3.67656 9.25549C3.32727 9.25549 3.23601 9.36023 3.24032 9.71893C3.25757 11.3135 3.24749 12.9081 3.24749 14.5019V14.942H-0.00390625V0.0294189H10.2246Z" fill="#2466D6"></path><path d="M34.143 14.9518H30.9434V0.039917H34.143V14.9518Z" fill="#2466D6"></path></g><defs><clipPath id="clip0_5071_3571"><rect width="70" height="15" fill="white"></rect></clipPath></defs></svg> 