<?xml version="1.0" encoding="UTF-8"?> <svg xmlns="http://www.w3.org/2000/svg" width="41" height="44" viewBox="0 0 41 44" fill="none"><g clip-path="url(#clip0_5071_3633)"><path d="M0.00365112 22.8958C0.277636 22.0837 0.846612 21.4963 1.43203 20.908C3.40654 18.9285 5.35914 16.9305 7.33 14.9417C8.47891 13.7799 9.68445 13.778 10.8251 14.9324C12.961 17.0964 15.0972 19.2606 17.2336 21.4251C18.4456 22.6544 18.4501 23.8514 17.2483 25.0706C15.1124 27.2357 12.9759 29.3999 10.8388 31.5632C9.69998 32.7158 8.4643 32.7195 7.3364 31.5752C5.31804 29.531 3.29878 27.4873 1.2786 25.4443C0.748892 24.9115 0.234714 24.3787 0 23.635L0.00365112 22.8958Z" fill="#7736B4"></path><path d="M7.14945 1.15165C7.50471 1.47633 7.8408 1.7816 8.17415 2.08963C9.06003 2.90826 9.89751 3.78978 10.8455 4.52424C11.5204 5.0478 12.3405 5.38172 13.1031 5.78687C13.4164 5.95245 13.6648 5.87937 13.9342 5.60187C15.4768 4.00992 17.0394 2.43926 18.6057 0.870446C19.5573 -0.0832404 20.7564 -0.269153 21.7958 0.376505C22.0619 0.552291 22.3071 0.758702 22.5264 0.991628C24.037 2.5068 25.5503 4.01918 27.0362 5.55932C27.3458 5.88123 27.5988 5.89694 27.986 5.75449C29.4472 5.21705 30.6245 4.26154 31.7241 3.18668C32.2921 2.63167 32.8626 2.07881 33.4355 1.52812C33.5643 1.40416 33.7095 1.29872 33.9835 1.07672C34.1004 2.07203 34.2648 2.94339 34.2959 3.81937C34.3981 6.73038 33.4054 9.17425 31.1587 11.0502C31.069 11.132 30.9901 11.2253 30.924 11.3277C30.5678 11.8346 30.2774 12.4053 29.8527 12.8429C27.449 15.3228 25.0123 17.7722 22.5867 20.2309C21.2268 21.6092 19.7829 21.6055 18.4175 20.2217C15.927 17.6973 13.4292 15.1804 10.956 12.6366C10.6135 12.2851 10.3907 11.8143 10.1112 11.3999C10.0469 11.2815 9.96706 11.1726 9.87377 11.0761C7.21886 8.8644 6.37863 5.97837 6.81062 2.62151C6.86815 2.18028 6.96496 1.7446 7.04624 1.30707C7.05355 1.28395 7.07912 1.2608 7.14945 1.15165Z" fill="#7736B4"></path><path d="M31.9476 32.4096C31.6491 32.4173 31.3524 32.3612 31.0767 32.245C30.801 32.1288 30.5526 31.9551 30.3475 31.7353C28.0799 29.4431 25.8094 27.1546 23.5573 24.8458C22.6385 23.9032 22.6358 22.6193 23.5573 21.6702C25.8295 19.338 28.1161 17.0212 30.417 14.7197C31.3211 13.8142 32.5951 13.8622 33.5495 14.8057C34.5486 15.7937 35.5277 16.8038 36.5149 17.8037C37.7068 19.0118 38.9032 20.2088 40.0877 21.4279C41.3115 22.6822 41.2996 23.8579 40.0649 25.1085C37.9187 27.2842 35.7721 29.4598 33.6253 31.6354C33.155 32.1136 32.6225 32.4217 31.9476 32.4096Z" fill="#7736B4"></path><path d="M29.5369 34.9395C29.5743 35.5102 29.2967 36.0005 28.8903 36.414C26.618 38.7265 24.3476 41.039 22.0562 43.333C21.1593 44.2294 19.8424 44.2201 18.9437 43.3192C16.6538 41.0251 14.3767 38.7178 12.1123 36.3973C11.2456 35.5093 11.2383 34.3623 12.0329 33.4077C12.1242 33.3022 12.2155 33.2014 12.3069 33.1034C14.4659 30.916 16.6252 28.7287 18.7848 26.5413C19.9081 25.4063 21.0899 25.4008 22.2023 26.5238C24.3759 28.7191 26.5465 30.9169 28.714 33.1172C29.2035 33.6093 29.5752 34.1542 29.5369 34.9395Z" fill="#7736B4"></path></g><defs><clipPath id="clip0_5071_3633"><rect width="41" height="44" fill="white"></rect></clipPath></defs></svg> 