<?xml version="1.0" encoding="UTF-8"?>
<svg xmlns="http://www.w3.org/2000/svg" xmlns:xlink="http://www.w3.org/1999/xlink" width="60px" height="px" viewBox="0 0 60 60" version="1.1">
<g id="surface1">
<path style=" stroke:none;fill-rule:nonzero;fill:rgb(100%,100%,100%);fill-opacity:1;" d="M 0 3.632812 L 60 3.632812 L 60 56.367188 L 0 56.367188 Z M 0 3.632812 "/>
<path style=" stroke:none;fill-rule:nonzero;fill:rgb(66.27451%,1.960784%,20%);fill-opacity:1;" d="M 10.390625 41.054688 C 5.984375 36.382812 3.40625 29.929688 3.414062 22.234375 C 3.40625 15.425781 5.546875 9.574219 9.222656 5.121094 L 9.21875 5.125 L 1.488281 5.125 L 1.488281 41.054688 Z M 10.390625 41.054688 "/>
<path style=" stroke:none;fill-rule:nonzero;fill:rgb(66.27451%,1.960784%,20%);fill-opacity:1;" d="M 51.097656 41.054688 C 52.996094 39.023438 54.695312 36.628906 56.238281 33.890625 L 47.683594 29.613281 C 44.679688 34.496094 40.285156 38.992188 34.210938 39.023438 C 25.367188 38.992188 21.894531 31.429688 21.914062 21.699219 L 54.953125 21.699219 C 54.996094 20.601562 54.996094 20.089844 54.953125 19.5625 C 55.167969 13.769531 53.636719 8.902344 50.84375 5.113281 L 50.828125 5.125 L 58.269531 5.125 L 58.269531 41.054688 L 51.078125 41.054688 Z M 51.097656 41.054688 "/>
<path style=" stroke:none;fill-rule:nonzero;fill:rgb(66.27451%,1.960784%,20%);fill-opacity:1;" d="M 22.445312 13.359375 C 22.8125 8.953125 26.285156 5.988281 30.359375 5.980469 C 34.460938 5.988281 37.421875 8.953125 37.523438 13.359375 Z M 22.445312 13.359375 "/>
<path style=" stroke:none;fill-rule:nonzero;fill:rgb(0%,0%,0%);fill-opacity:1;" d="M 6.195312 47.148438 L 6.195312 45.652344 L 1.59375 45.652344 L 1.59375 54.527344 L 6.195312 54.527344 L 6.195312 53.03125 L 3.304688 53.03125 L 3.304688 50.675781 L 6.085938 50.675781 L 6.085938 49.179688 L 3.304688 49.179688 L 3.304688 47.148438 Z M 6.195312 47.148438 "/>
<path style=" stroke:none;fill-rule:nonzero;fill:rgb(0%,0%,0%);fill-opacity:1;" d="M 14 50.785156 C 15.144531 50.613281 15.773438 49.476562 15.816406 48.324219 C 15.773438 46.4375 14.550781 45.65625 12.824219 45.652344 L 10.472656 45.652344 L 10.472656 54.527344 L 12.179688 54.527344 L 12.179688 51 L 14.320312 54.527344 L 16.457031 54.527344 Z M 12.179688 47.042969 L 12.394531 47.042969 C 13.328125 47.078125 14.03125 47.289062 14 48.433594 C 14.03125 49.476562 13.351562 49.761719 12.394531 49.714844 L 12.179688 49.714844 Z M 12.179688 47.042969 "/>
<path style=" stroke:none;fill-rule:nonzero;fill:rgb(0%,0%,0%);fill-opacity:1;" d="M 21.804688 45.652344 L 20.09375 45.652344 L 20.09375 54.527344 L 24.265625 54.527344 L 24.265625 53.03125 L 21.804688 53.03125 Z M 21.804688 45.652344 "/>
<path style=" stroke:none;fill-rule:nonzero;fill:rgb(0%,0%,0%);fill-opacity:1;" d="M 33.03125 52.710938 L 33.78125 54.527344 L 35.597656 54.527344 L 32.285156 45.4375 L 30.894531 45.4375 L 27.367188 54.527344 L 29.183594 54.527344 L 29.933594 52.710938 Z M 32.605469 51.320312 L 30.464844 51.320312 L 31.429688 48.003906 Z M 32.605469 51.320312 "/>
<path style=" stroke:none;fill-rule:nonzero;fill:rgb(0%,0%,0%);fill-opacity:1;" d="M 38.808594 54.527344 L 40.625 54.527344 L 40.625 48.539062 L 45.332031 54.742188 L 46.613281 54.742188 L 46.613281 45.652344 L 44.796875 45.652344 L 44.796875 51.640625 L 40.089844 45.4375 L 38.808594 45.4375 Z M 38.808594 54.527344 "/>
<path style=" stroke:none;fill-rule:nonzero;fill:rgb(0%,0%,0%);fill-opacity:1;" d="M 54.097656 49.820312 L 54.097656 51.210938 L 56.023438 51.210938 C 55.984375 52.328125 55.070312 53.277344 53.992188 53.242188 C 52.289062 53.277344 51.445312 51.632812 51.425781 50.144531 C 51.445312 48.675781 52.277344 46.957031 53.992188 46.933594 C 54.890625 46.957031 55.652344 47.574219 56.023438 48.324219 L 57.519531 47.578125 C 56.863281 46.191406 55.53125 45.421875 53.992188 45.4375 C 51.339844 45.421875 49.640625 47.609375 49.605469 50.144531 C 49.640625 52.613281 51.292969 54.8125 53.882812 54.847656 C 56.683594 54.8125 57.976562 52.578125 57.949219 50.035156 L 57.949219 49.820312 Z M 54.097656 49.820312 "/>
</g>
</svg>
