<?xml version="1.0" encoding="UTF-8"?>
<svg xmlns="http://www.w3.org/2000/svg" xmlns:xlink="http://www.w3.org/1999/xlink" width="60px" height="60px" viewBox="0 0 60 60" version="1.1">
<g id="surface1">
<path style=" stroke:none;fill-rule:nonzero;fill:rgb(0%,0%,0%);fill-opacity:1;" d="M 60 46.46875 C 58.191406 47.152344 56.160156 46.382812 55.261719 44.671875 L 46.636719 32.742188 L 45.386719 31.074219 L 35.378906 44.683594 C 34.535156 46.324219 32.609375 47.082031 30.875 46.453125 L 43.769531 29.15625 L 31.773438 13.527344 C 33.554688 12.886719 35.535156 13.582031 36.523438 15.191406 L 45.464844 27.265625 L 54.453125 15.242188 C 55.304688 13.632812 57.226562 12.914062 58.925781 13.574219 L 54.269531 19.75 L 47.964844 27.957031 C 47.609375 28.273438 47.410156 28.726562 47.410156 29.199219 C 47.410156 29.675781 47.609375 30.125 47.964844 30.441406 L 59.976562 46.472656 Z M 0.00390625 28.941406 L 1.054688 23.753906 C 3.941406 13.496094 15.699219 9.226562 23.789062 15.578125 C 28.527344 19.300781 29.710938 24.570312 29.476562 30.511719 L 2.789062 30.511719 C 2.359375 41.117188 10.011719 47.523438 19.800781 44.25 C 23.023438 43.089844 25.449219 40.390625 26.253906 37.058594 C 26.773438 35.394531 27.625 35.109375 29.191406 35.589844 C 28.660156 39.703125 26.277344 43.351562 22.71875 45.484375 C 16.765625 48.738281 9.394531 47.796875 4.453125 43.148438 C 2.070312 40.46875 0.628906 37.082031 0.351562 33.503906 C 0.351562 32.917969 0.152344 32.367188 0.015625 31.839844 C 0.00390625 30.875 0 29.910156 0 28.941406 Z M 2.824219 28.226562 L 26.957031 28.226562 C 26.808594 20.535156 21.953125 15.078125 15.484375 15.03125 C 8.277344 14.929688 3.121094 20.265625 2.804688 28.191406 Z M 2.824219 28.226562 "/>
</g>
</svg>
