<?xml version="1.0" encoding="UTF-8"?> <svg xmlns="http://www.w3.org/2000/svg" width="48" height="60" viewBox="0 0 48 60" fill="none"><path d="M21.1238 0H30.9287V44.9388C25.9064 45.8887 22.2093 46.2625 18.209 46.2625C6.23369 46.25 0 40.9 0 30.625C0 20.725 6.61224 14.3 16.8587 14.3C18.4488 14.3 19.6601 14.4251 21.1238 14.8V0ZM21.4674 22.8985C20.3191 22.5234 19.3728 22.3984 18.1613 22.3984C13.2022 22.3984 10.3378 25.4234 10.3378 30.7246C10.3378 35.8859 13.0762 38.7358 18.0984 38.7358C19.1834 38.7358 20.0668 38.6747 21.4674 38.4872V22.8985Z" fill="#2BA977"></path><path d="M46.9624 15.5065V38.0067C46.9624 45.7553 46.382 49.4816 44.6784 52.6942C43.0884 55.7828 40.9937 57.7304 36.6655 59.8816L27.5674 55.5942C31.8956 53.5827 33.9903 51.8054 35.328 49.0929C36.7285 46.3192 37.1701 43.1066 37.1701 34.6566V15.5067H46.9624V15.5065ZM36.1821 0H45.9869V9.96253H36.1821V0Z" fill="#2BA977"></path></svg> 