<?xml version="1.0" encoding="UTF-8"?> <svg xmlns="http://www.w3.org/2000/svg" width="59" height="60" viewBox="0 0 59 60" fill="none"><g clip-path="url(#clip0_8503_4494)"><path d="M57.8961 13.6892C57.9176 13.7687 57.9286 13.8507 57.9288 13.9331V26.7335C57.9288 26.8978 57.8854 27.0592 57.8031 27.2014C57.7207 27.3435 57.6023 27.4614 57.4598 27.5432L46.7161 33.7288V45.9891C46.7161 46.3227 46.5388 46.6307 46.2495 46.7987L23.823 59.7089C23.7716 59.738 23.7156 59.7567 23.6596 59.7765C23.6386 59.7835 23.6188 59.7964 23.5966 59.8022C23.4399 59.8435 23.2751 59.8435 23.1183 59.8022C23.0927 59.7952 23.0693 59.7812 23.0448 59.7719C22.9935 59.7532 22.9398 59.7369 22.8908 59.7089L0.468993 46.7987C0.326554 46.7169 0.208201 46.599 0.125863 46.4568C0.0435258 46.3147 0.000112861 46.1533 0 45.9891L0 7.58765C0 7.50365 0.0116665 7.42198 0.0326662 7.34265C0.0396661 7.31582 0.0559992 7.29132 0.0653324 7.26449C0.0828321 7.21549 0.0991652 7.16532 0.124831 7.11982C0.142331 7.08949 0.167997 7.06499 0.188997 7.03699C0.21583 6.99966 0.24033 6.96116 0.271829 6.92849C0.298662 6.90166 0.333662 6.88183 0.363995 6.85849C0.397827 6.83049 0.42816 6.80016 0.46666 6.77799H0.467826L11.6793 0.322923C11.8213 0.241235 11.9822 0.198242 12.146 0.198242C12.3098 0.198242 12.4707 0.241235 12.6126 0.322923L23.8241 6.77799H23.8265C23.8638 6.80133 23.8953 6.83049 23.9291 6.85733C23.9595 6.88066 23.9933 6.90166 24.0201 6.92732C24.0528 6.96116 24.0761 6.99966 24.1041 7.03699C24.124 7.06499 24.1508 7.08949 24.1671 7.11982C24.194 7.16649 24.2091 7.21549 24.2278 7.26449C24.2371 7.29132 24.2535 7.31582 24.2605 7.34382C24.2819 7.42332 24.2929 7.50529 24.2931 7.58765V31.5728L33.6357 26.1934V13.9319C33.6357 13.8502 33.6473 13.7674 33.6683 13.6892C33.6765 13.6612 33.6917 13.6367 33.701 13.6099C33.7197 13.5609 33.736 13.5107 33.7617 13.4652C33.7792 13.4349 33.8048 13.4104 33.8247 13.3824C33.8527 13.3451 33.876 13.3066 33.9087 13.2739C33.9355 13.2471 33.9693 13.2272 33.9997 13.2039C34.0347 13.1759 34.065 13.1456 34.1023 13.1234H34.1035L45.3162 6.66833C45.4581 6.58653 45.619 6.54347 45.7828 6.54347C45.9466 6.54347 46.1076 6.58653 46.2495 6.66833L57.461 13.1234C57.5006 13.1467 57.531 13.1759 57.566 13.2027C57.5951 13.2261 57.629 13.2471 57.6558 13.2727C57.6885 13.3066 57.7118 13.3451 57.7398 13.3824C57.7608 13.4104 57.7865 13.4349 57.8028 13.4652C57.8296 13.5107 57.8448 13.5609 57.8635 13.6099C57.874 13.6367 57.8891 13.6612 57.8961 13.6892ZM56.0598 26.1934V15.5489L52.1364 17.8075L46.7161 20.9283V31.5728L56.061 26.1934H56.0598ZM44.8483 45.4489V34.7974L39.5167 37.8424L24.292 46.5316V57.2834L44.8483 45.4489ZM1.86897 9.20346V45.4489L22.423 57.2822V46.5327L11.6852 40.4557L11.6817 40.4533L11.677 40.451C11.6408 40.43 11.6105 40.3997 11.5767 40.374C11.5475 40.3507 11.5137 40.332 11.488 40.3063L11.4857 40.3028C11.4553 40.2737 11.4343 40.2375 11.4087 40.2048C11.3853 40.1733 11.3573 40.1465 11.3387 40.1138L11.3375 40.1103C11.3165 40.0753 11.3037 40.0333 11.2885 39.9937C11.2733 39.9587 11.2535 39.926 11.2442 39.8887V39.8875C11.2325 39.8432 11.2302 39.7965 11.2255 39.751C11.2208 39.716 11.2115 39.681 11.2115 39.646V14.5829L5.79241 11.4609L1.86897 9.20462V9.20346ZM12.1472 2.21056L2.80579 7.58765L12.1448 12.9647L21.485 7.58648L12.1448 2.21056H12.1472ZM17.0051 35.7681L22.4242 32.6484V9.20346L18.5007 11.4621L13.0805 14.5829V38.0279L17.0051 35.7681ZM45.7828 8.55597L36.4426 13.9331L45.7828 19.3101L55.1218 13.9319L45.7828 8.55597ZM44.8483 20.9283L39.4281 17.8075L35.5046 15.5489V26.1934L40.9237 29.313L44.8483 31.5728V20.9283ZM23.3563 44.9158L37.0563 37.0945L43.9045 33.1863L34.5713 27.8127L23.8253 33.9994L14.0313 39.6378L23.3563 44.9158Z" fill="#FF2D20"></path></g><defs><clipPath id="clip0_8503_4494"><rect width="58.032" height="60" fill="white"></rect></clipPath></defs></svg> 