<?xml version="1.0" encoding="UTF-8"?> <svg xmlns="http://www.w3.org/2000/svg" width="60" height="60" viewBox="0 0 60 60" fill="none"><rect width="60" height="60" rx="30" fill="#512BD4"></rect><g clip-path="url(#clip0_8716_1853)"><path d="M10.7479 35.8911C10.6386 35.7749 10.5054 35.6827 10.3585 35.6178C10.2116 35.5529 10.0545 35.5222 9.89397 35.5222C9.73344 35.5188 9.57632 35.5529 9.42944 35.6144C9.28257 35.6793 9.14936 35.7715 9.04006 35.8877C8.92734 36.0004 8.83854 36.1336 8.78047 36.2805C8.7224 36.4308 8.69166 36.5879 8.69166 36.745C8.68825 36.9055 8.71899 37.0627 8.78047 37.2095C8.84195 37.3564 8.93076 37.4896 9.04348 37.6023C9.15281 37.7185 9.2853 37.8105 9.43239 37.8722C9.57948 37.934 9.73789 37.9642 9.89739 37.961C10.0565 37.9618 10.2142 37.9305 10.361 37.8689C10.5077 37.8073 10.6405 37.7166 10.7513 37.6023C10.8674 37.493 10.9562 37.3598 11.0177 37.2129C11.0792 37.0661 11.1099 36.9089 11.1099 36.7484C11.1099 36.5879 11.0792 36.4308 11.0177 36.2839C10.9528 36.1336 10.864 36.0004 10.7479 35.8911ZM25.0424 33.1176C25.0253 33.8827 25.0629 34.6512 25.1517 35.4129H25.1107C25.0151 35.225 24.8033 34.8766 24.4788 34.3677L16.6911 22.1431H14.3275V37.7492H16.1446V26.4673C16.1651 25.7534 16.1344 25.0395 16.0592 24.3257H16.1275C16.2573 24.6672 16.4247 24.9951 16.6228 25.3025L24.6223 37.7492H26.8595V22.1431H25.0424V33.1176ZM39.1798 36.0345H32.7584V30.6276H38.3771V28.9812H32.7584V23.7962H38.787V22.1431H30.8968V37.7492H39.1696L39.1798 36.0345ZM40.57 22.1431V23.7962H45.0445V37.7492H46.8616V23.7962H51.3874V22.1431H40.57Z" fill="white"></path></g><defs><clipPath id="clip0_8716_1853"><rect width="42.8571" height="38.4286" fill="white" transform="translate(8.57129 10.7144)"></rect></clipPath></defs></svg> 