<?xml version="1.0" encoding="UTF-8"?>
<svg xmlns="http://www.w3.org/2000/svg" xmlns:xlink="http://www.w3.org/1999/xlink" width="60px" height="60px" viewBox="0 0 60 60" version="1.1">
<g id="surface1">
<path style=" stroke:none;fill-rule:nonzero;fill:rgb(90.588235%,43.529412%,0%);fill-opacity:1;" d="M 30.09375 15.824219 C 42.445312 6.238281 36.105469 0 36.105469 0 C 37.050781 9.914062 25.898438 12.253906 22.910156 19.066406 C 20.871094 23.714844 24.308594 27.785156 30.089844 32.917969 C 29.578125 31.78125 28.789062 30.675781 27.992188 29.558594 C 25.269531 25.746094 22.433594 21.773438 30.09375 15.824219 Z M 30.09375 15.824219 "/>
<path style=" stroke:none;fill-rule:nonzero;fill:rgb(90.588235%,43.529412%,0%);fill-opacity:1;" d="M 32.066406 35.019531 C 32.066406 35.019531 35.78125 32.019531 32.839844 28.6875 C 22.863281 17.382812 43.75 12.253906 43.75 12.253906 C 30.996094 18.398438 32.902344 22.046875 36.105469 26.476562 C 39.539062 31.226562 32.066406 35.019531 32.066406 35.019531 Z M 32.066406 35.019531 "/>
<path style=" stroke:none;fill-rule:nonzero;fill:rgb(32.54902%,50.980392%,63.137255%);fill-opacity:1;" d="M 43.007812 43.960938 C 54.453125 38.109375 49.160156 32.488281 45.46875 33.246094 C 44.5625 33.433594 44.15625 33.59375 44.15625 33.59375 C 44.15625 33.59375 44.492188 33.074219 45.136719 32.851562 C 52.445312 30.324219 58.066406 40.304688 42.777344 44.253906 C 42.777344 44.253906 42.953125 44.101562 43.007812 43.960938 Z M 43.007812 43.960938 "/>
<path style=" stroke:none;fill-rule:nonzero;fill:rgb(32.54902%,50.980392%,63.137255%);fill-opacity:1;" d="M 19.1875 36.558594 C 12.023438 35.617188 23.113281 33.027344 23.113281 33.027344 C 23.113281 33.027344 18.808594 32.742188 13.511719 35.257812 C 7.25 38.238281 29.003906 39.59375 40.265625 36.679688 C 41.433594 35.894531 43.050781 35.210938 43.050781 35.210938 C 43.050781 35.210938 38.445312 36.019531 33.855469 36.402344 C 28.238281 36.863281 22.210938 36.953125 19.1875 36.558594 Z M 19.1875 36.558594 "/>
<path style=" stroke:none;fill-rule:nonzero;fill:rgb(32.54902%,50.980392%,63.137255%);fill-opacity:1;" d="M 21.910156 42.140625 C 17.917969 41.734375 20.53125 39.832031 20.53125 39.832031 C 10.199219 43.207031 26.285156 47.03125 40.726562 42.878906 C 39.191406 42.347656 38.214844 41.371094 38.214844 41.371094 C 31.15625 42.707031 27.078125 42.667969 21.910156 42.140625 Z M 21.910156 42.140625 "/>
<path style=" stroke:none;fill-rule:nonzero;fill:rgb(32.54902%,50.980392%,63.137255%);fill-opacity:1;" d="M 23.652344 48.1875 C 19.660156 47.734375 21.992188 46.402344 21.992188 46.402344 C 12.609375 48.980469 27.699219 54.304688 39.644531 49.269531 C 37.6875 48.523438 36.285156 47.660156 36.285156 47.660156 C 30.957031 48.652344 28.488281 48.726562 23.652344 48.1875 Z M 23.652344 48.1875 "/>
<path style=" stroke:none;fill-rule:nonzero;fill:rgb(32.54902%,50.980392%,63.137255%);fill-opacity:1;" d="M 48.636719 51.261719 C 48.636719 51.261719 50.359375 52.660156 46.734375 53.738281 C 39.839844 55.792969 18.039062 56.414062 11.984375 53.820312 C 9.804688 52.890625 13.886719 51.597656 15.171875 51.328125 C 16.511719 51.042969 17.277344 51.09375 17.277344 51.09375 C 14.855469 49.417969 1.628906 54.386719 10.558594 55.8125 C 34.910156 59.695312 54.953125 54.0625 48.636719 51.261719 Z M 48.636719 51.261719 "/>
<path style=" stroke:none;fill-rule:nonzero;fill:rgb(32.54902%,50.980392%,63.137255%);fill-opacity:1;" d="M 52.5 54.316406 C 52.101562 59.425781 35.226562 60.503906 24.238281 59.8125 C 17.070312 59.359375 15.632812 58.230469 15.613281 58.214844 C 22.472656 59.324219 34.039062 59.527344 43.417969 57.792969 C 51.730469 56.253906 52.5 54.316406 52.5 54.316406 Z M 52.5 54.316406 "/>
</g>
</svg>
