<?xml version="1.0" encoding="UTF-8"?> <svg xmlns="http://www.w3.org/2000/svg" width="30" height="30" viewBox="0 0 30 30" fill="none"><path d="M14.9946 28.4764C14.6362 28.4764 14.2725 28.3802 13.957 28.1984L10.6571 26.2463C10.165 25.9681 10.4057 25.8719 10.5662 25.8183C11.2239 25.5884 11.3577 25.5403 12.0583 25.1391C12.1332 25.0964 12.2295 25.1123 12.3043 25.1606L14.8394 26.6634C14.9304 26.7168 15.0586 26.7168 15.1442 26.6634L25.0227 20.962C25.1137 20.9085 25.1724 20.8015 25.1724 20.6946V9.29191C25.1724 9.17959 25.1137 9.07799 25.0174 9.01922L15.1443 3.32314C15.0534 3.26965 14.9304 3.26965 14.8395 3.32314L4.97176 9.02449C4.87543 9.07799 4.81666 9.18492 4.81666 9.29725V20.6946C4.81666 20.8015 4.87543 20.9085 4.97176 20.9567L7.67809 22.5184C9.14891 23.2511 10.0474 22.39 10.0474 21.5183V10.2653C10.0474 10.1048 10.1757 9.98186 10.3363 9.98186H11.5878C11.7429 9.98186 11.8765 10.1048 11.8765 10.2653V21.5237C11.8765 23.4811 10.8068 24.6043 8.95104 24.6043C8.37869 24.6043 7.92945 24.6043 6.67795 23.9839L4.08934 22.4917C3.4475 22.1226 3.05176 21.4327 3.05176 20.6893V9.29191C3.05176 8.55387 3.4475 7.85859 4.08934 7.48957L13.957 1.78816C14.5827 1.4352 15.4118 1.4352 16.0321 1.78816L25.9107 7.49484C26.5525 7.86387 26.9482 8.55381 26.9482 9.29725V20.6946C26.9482 21.4327 26.5525 22.1226 25.9107 22.497L16.0321 28.1984C15.7166 28.3802 15.3581 28.4764 14.9946 28.4764ZM22.9691 17.2396C22.9691 15.1056 21.525 14.5387 18.4925 14.1376C15.4224 13.7311 15.1123 13.5225 15.1123 12.8058C15.1123 12.2122 15.3744 11.4206 17.6474 11.4206C19.6745 11.4206 20.4233 11.8592 20.7334 13.2284C20.7602 13.3567 20.878 13.453 21.0115 13.453H22.2953C22.3754 13.453 22.4503 13.421 22.5038 13.3621C22.5574 13.3033 22.584 13.223 22.5785 13.1428C22.3808 10.7842 20.8136 9.68777 17.6474 9.68777C14.8289 9.68777 13.1495 10.8751 13.1495 12.8701C13.1495 15.0308 14.8235 15.6299 17.5244 15.8971C20.7602 16.2128 21.0115 16.6888 21.0115 17.3252C21.0115 18.4271 20.1238 18.8976 18.0433 18.8976C15.4279 18.8976 14.8556 18.2398 14.663 16.9402C14.6417 16.8012 14.5239 16.6996 14.3796 16.6996H13.1013C12.9409 16.6996 12.8179 16.8279 12.8179 16.9829C12.8179 18.6464 13.7218 20.6306 18.0487 20.6306C21.172 20.6252 22.9691 19.3896 22.9691 17.2396Z" fill="#539E43"></path></svg> 