<?xml version="1.0" encoding="UTF-8"?>
<svg xmlns="http://www.w3.org/2000/svg" xmlns:xlink="http://www.w3.org/1999/xlink" width="60px" height="px" viewBox="0 0 60 60" version="1.1">
<g id="surface1">
<path style=" stroke:none;fill-rule:nonzero;fill:rgb(99.215686%,30.980392%,0%);fill-opacity:1;" d="M 22.53125 38.09375 C 22.265625 38.046875 22.164062 38.027344 22.058594 38.011719 C 18.710938 37.386719 16.59375 35.359375 15.589844 32.175781 C 14.964844 30.191406 16.101562 28.726562 18.183594 28.632812 C 19.890625 28.550781 21.058594 29.53125 22.089844 30.671875 C 23.421875 32.144531 24.640625 33.714844 25.945312 35.207031 C 27.828125 37.355469 30.046875 38.738281 33.078125 38.3125 C 35.796875 37.929688 38.167969 36.835938 40.230469 35.039062 C 40.542969 34.769531 40.882812 34.535156 41.207031 34.28125 C 41.140625 34.203125 41.070312 34.121094 41.003906 34.039062 C 39.269531 34.578125 37.503906 34.757812 35.699219 34.667969 C 32.96875 34.53125 30.371094 33.960938 28.042969 32.460938 C 25.917969 31.09375 24.351562 29.261719 23.605469 26.8125 C 23.003906 24.835938 24.238281 23.453125 26.285156 23.738281 C 27.097656 23.851562 27.777344 24.214844 28.390625 24.734375 C 28.890625 25.15625 29.367188 25.601562 29.875 26.007812 C 32.265625 27.929688 35.609375 28.039062 38.644531 25.949219 C 33.65625 25.929688 30.257812 23.183594 27.273438 19.703125 C 26.109375 18.339844 24.96875 16.953125 23.777344 15.613281 C 21.472656 13.019531 18.914062 10.734375 15.410156 9.957031 C 10.9375 8.960938 6.617188 9.609375 2.472656 11.507812 C 1.644531 11.886719 0.851562 12.328125 0 13.039062 C 0.421875 13.039062 0.652344 13.042969 0.882812 13.035156 C 2.972656 12.984375 4.539062 13.910156 5.667969 15.621094 C 6.488281 16.867188 6.878906 18.273438 7.171875 19.71875 C 7.609375 21.867188 7.382812 24.058594 7.636719 26.21875 C 8.289062 31.765625 11.125 35.636719 16.40625 37.621094 C 18.339844 38.347656 20.328125 38.589844 22.53125 38.09375 Z M 9.1875 12.78125 C 8.351562 12.992188 7.683594 12.65625 7 11.960938 C 8.175781 11.667969 9.210938 11.554688 10.328125 11.511719 C 10.238281 12.234375 9.808594 12.625 9.1875 12.78125 Z M 36.527344 45.1875 C 36.457031 44.652344 36 44.417969 35.640625 44.136719 C 34.054688 42.902344 32.195312 42.464844 30.230469 42.429688 C 29.054688 42.40625 27.890625 42.320312 26.785156 41.90625 C 26.277344 41.71875 25.710938 41.476562 25.722656 40.820312 C 25.734375 40.152344 26.3125 39.964844 26.839844 39.808594 C 27.273438 39.679688 27.71875 39.597656 28.210938 39.480469 C 26.960938 38.683594 25.742188 38.570312 24.117188 39.226562 C 21.5625 40.253906 19.039062 40.132812 16.492188 39.210938 C 15.050781 38.691406 13.777344 37.875 12.445312 37.152344 L 12.410156 37.179688 C 12.425781 37.167969 12.445312 37.15625 12.445312 37.15625 C 12.410156 37.054688 12.351562 37.050781 12.273438 37.109375 C 12.308594 37.136719 12.34375 37.167969 12.378906 37.199219 C 13.484375 39.007812 14.972656 40.460938 16.65625 41.703125 C 19.894531 44.097656 23.4375 45.523438 27.578125 44.890625 C 28.914062 44.6875 30.265625 44.527344 31.613281 44.417969 C 33.304688 44.28125 34.917969 44.757812 36.527344 45.1875 Z M 28.71875 19.257812 C 28.628906 19.195312 28.542969 19.03125 28.359375 19.199219 C 29.851562 21.214844 31.765625 22.703125 34.070312 23.636719 C 37.789062 25.148438 41.566406 25.40625 45.429688 24.074219 C 48.425781 23.039062 50.582031 24.050781 51.703125 26.960938 C 51.863281 23.582031 49.875 21.121094 46.710938 20.636719 C 44.929688 20.367188 43.285156 20.957031 41.617188 21.441406 C 36.972656 22.785156 32.65625 22.121094 28.71875 19.257812 Z M 51.859375 32.4375 C 52.464844 32.488281 53.070312 32.542969 53.675781 32.597656 C 52.308594 31.394531 50.640625 31.300781 48.957031 31.394531 C 46.390625 31.542969 44.542969 33.023438 42.855469 34.789062 C 41.371094 36.347656 40.027344 38.097656 37.8125 38.722656 C 37.847656 38.789062 37.859375 38.824219 37.871094 38.824219 C 38.167969 38.828125 38.464844 38.84375 38.765625 38.828125 C 41.984375 38.683594 45.015625 38.003906 47.429688 35.667969 C 48.1875 34.933594 48.867188 34.113281 49.601562 33.351562 C 50.210938 32.714844 50.953125 32.363281 51.859375 32.4375 Z M 44.382812 28.449219 C 41.980469 28.660156 39.894531 29.652344 37.933594 30.960938 C 36.425781 31.972656 34.8125 32.449219 32.996094 32.132812 C 32.679688 32.078125 32.359375 32.035156 32.039062 31.988281 C 32.035156 32.03125 32.03125 32.078125 32.027344 32.121094 C 32.140625 32.179688 32.253906 32.25 32.375 32.296875 C 32.675781 32.417969 32.972656 32.5625 33.285156 32.636719 C 36.773438 33.464844 40.113281 33.039062 43.125 31.09375 C 45.023438 29.871094 46.988281 29.636719 49.117188 29.953125 C 49.332031 29.984375 49.546875 30.023438 49.765625 30.046875 C 49.964844 30.0625 50.171875 30.261719 50.445312 30.046875 C 48.582031 28.703125 46.578125 28.257812 44.382812 28.449219 Z M 35.796875 20.292969 C 37.054688 20.335938 38.3125 20.171875 39.628906 19.390625 C 39.242188 19.421875 39.078125 19.421875 38.921875 19.453125 C 37.105469 19.816406 35.476562 19.417969 34.023438 18.273438 C 33.492188 17.851562 32.949219 17.441406 32.410156 17.027344 C 30.273438 15.390625 27.820312 14.84375 25.136719 14.890625 C 25.179688 15.023438 25.183594 15.113281 25.230469 15.160156 C 28.148438 18.113281 31.527344 20.144531 35.796875 20.292969 Z M 56.921875 35.441406 C 55.117188 33.652344 52.691406 33.421875 50.449219 34.984375 C 51.933594 35.050781 53.046875 35.523438 53.953125 36.460938 C 54.273438 36.792969 54.605469 37.117188 54.960938 37.40625 C 56.328125 38.507812 58.644531 38.5625 60 37.539062 C 58.410156 36.917969 58.410156 36.917969 56.921875 35.441406 Z M 38.929688 49.164062 C 37.34375 46.210938 34.675781 45.542969 31.59375 45.742188 C 32.503906 45.992188 33.355469 46.382812 34.136719 46.925781 C 34.851562 47.429688 35.457031 48.046875 36.050781 48.683594 C 37.230469 49.941406 39.070312 50.714844 40.289062 50.453125 C 39.730469 50.101562 39.234375 49.726562 38.929688 49.164062 Z M 53.703125 32.65625 C 53.703125 32.636719 53.703125 32.621094 53.707031 32.601562 C 53.707031 32.601562 53.703125 32.601562 53.703125 32.605469 L 53.707031 32.597656 C 53.695312 32.597656 53.6875 32.597656 53.675781 32.597656 C 53.679688 32.601562 53.6875 32.605469 53.695312 32.613281 C 53.699219 32.628906 53.699219 32.640625 53.703125 32.65625 Z M 36.617188 45.253906 C 36.59375 45.242188 36.574219 45.230469 36.554688 45.21875 C 36.554688 45.234375 36.558594 45.246094 36.566406 45.257812 C 36.570312 45.265625 36.597656 45.257812 36.617188 45.253906 Z M 36.554688 45.21875 C 36.550781 45.210938 36.550781 45.199219 36.546875 45.191406 C 36.546875 45.191406 36.542969 45.195312 36.539062 45.199219 L 36.546875 45.191406 C 36.542969 45.1875 36.535156 45.1875 36.527344 45.1875 C 36.53125 45.195312 36.53125 45.199219 36.53125 45.207031 C 36.539062 45.210938 36.546875 45.214844 36.554688 45.21875 Z M 36.554688 45.21875 "/>
</g>
</svg>
