<?xml version="1.0" encoding="UTF-8"?>
<svg xmlns="http://www.w3.org/2000/svg" xmlns:xlink="http://www.w3.org/1999/xlink" width="60px" height="60px" viewBox="0 0 60 60" version="1.1">
<g id="surface1">
<path style=" stroke:none;fill-rule:nonzero;fill:rgb(53.333333%,57.254902%,74.901961%);fill-opacity:1;" d="M 56.25 30 C 56.25 44.496094 44.496094 56.25 30 56.25 C 15.503906 56.25 3.75 44.496094 3.75 30 C 3.75 15.503906 15.503906 3.75 30 3.75 C 44.496094 3.75 56.25 15.503906 56.25 30 Z M 56.25 30 "/>
<path style=" stroke:none;fill-rule:nonzero;fill:rgb(100%,100%,100%);fill-opacity:1;" d="M 27.074219 18.75 L 30.222656 18.75 L 29.332031 23.484375 L 32.164062 23.484375 C 33.714844 23.515625 34.871094 23.863281 35.632812 24.523438 C 36.410156 25.183594 36.636719 26.441406 36.320312 28.289062 L 34.789062 36.542969 L 31.59375 36.542969 L 33.054688 28.660156 C 33.207031 27.835938 33.160156 27.25 32.917969 26.902344 C 32.671875 26.554688 32.148438 26.382812 31.34375 26.382812 L 28.808594 26.359375 L 26.9375 36.542969 L 23.785156 36.542969 Z M 27.074219 18.75 "/>
<path style=" stroke:none;fill-rule:evenodd;fill:rgb(100%,100%,100%);fill-opacity:1;" d="M 12.640625 23.484375 L 18.757812 23.484375 C 20.550781 23.5 21.851562 24.0625 22.660156 25.167969 C 23.464844 26.273438 23.734375 27.785156 23.460938 29.703125 C 23.351562 30.578125 23.117188 31.4375 22.75 32.28125 C 22.402344 33.121094 21.914062 33.882812 21.289062 34.558594 C 20.53125 35.417969 19.714844 35.964844 18.847656 36.195312 C 17.980469 36.425781 17.082031 36.542969 16.15625 36.542969 L 13.414062 36.542969 L 12.546875 41.25 L 9.375 41.25 Z M 13.941406 33.742188 L 15.304688 26.332031 L 15.765625 26.332031 C 15.933594 26.332031 16.109375 26.324219 16.292969 26.308594 C 17.507812 26.292969 18.519531 26.414062 19.328125 26.679688 C 20.148438 26.945312 20.421875 27.941406 20.148438 29.679688 C 19.816406 31.742188 19.160156 32.949219 18.1875 33.296875 C 17.210938 33.625 15.996094 33.78125 14.535156 33.765625 L 14.214844 33.765625 C 14.121094 33.765625 14.03125 33.757812 13.941406 33.742188 Z M 13.941406 33.742188 "/>
<path style=" stroke:none;fill-rule:evenodd;fill:rgb(100%,100%,100%);fill-opacity:1;" d="M 45.820312 23.484375 L 39.699219 23.484375 L 36.4375 41.25 L 39.609375 41.25 L 40.476562 36.542969 L 43.214844 36.542969 C 44.144531 36.542969 45.042969 36.425781 45.910156 36.195312 C 46.777344 35.964844 47.589844 35.417969 48.351562 34.558594 C 48.976562 33.882812 49.464844 33.121094 49.8125 32.28125 C 50.179688 31.4375 50.414062 30.578125 50.519531 29.703125 C 50.792969 27.785156 50.527344 26.273438 49.722656 25.167969 C 48.914062 24.0625 47.613281 23.5 45.820312 23.484375 Z M 42.367188 26.332031 L 41.003906 33.742188 C 41.09375 33.757812 41.183594 33.765625 41.277344 33.765625 L 41.59375 33.765625 C 43.054688 33.78125 44.273438 33.625 45.246094 33.296875 C 46.222656 32.949219 46.875 31.742188 47.210938 29.679688 C 47.484375 27.941406 47.210938 26.945312 46.390625 26.679688 C 45.582031 26.414062 44.570312 26.292969 43.351562 26.308594 C 43.171875 26.324219 42.996094 26.332031 42.828125 26.332031 Z M 42.367188 26.332031 "/>
</g>
</svg>
