<?xml version="1.0" encoding="UTF-8"?>
<svg xmlns="http://www.w3.org/2000/svg" xmlns:xlink="http://www.w3.org/1999/xlink" width="60px" height="px" viewBox="0 0 60 60" version="1.1">
<g id="surface1">
<path style=" stroke:none;fill-rule:nonzero;fill:rgb(0%,0%,0%);fill-opacity:1;" d="M 58.867188 35.929688 C 58.515625 34.871094 57.601562 34.136719 56.421875 33.960938 C 55.863281 33.875 55.226562 33.910156 54.46875 34.066406 C 53.152344 34.339844 52.175781 34.441406 51.464844 34.460938 C 54.15625 29.921875 56.34375 24.742188 57.601562 19.863281 C 59.636719 11.980469 58.550781 8.390625 57.277344 6.765625 C 53.914062 2.464844 49.003906 0.15625 43.078125 0.0859375 C 39.921875 0.046875 37.144531 0.667969 35.699219 1.117188 C 34.351562 0.878906 32.902344 0.746094 31.382812 0.722656 C 28.535156 0.679688 26.015625 1.300781 23.867188 2.574219 C 22.675781 2.171875 20.761719 1.605469 18.554688 1.242188 C 13.363281 0.390625 9.179688 1.054688 6.121094 3.214844 C 2.414062 5.835938 0.695312 10.382812 1.015625 16.734375 C 1.113281 18.75 2.242188 24.886719 4.019531 30.707031 C 5.039062 34.050781 6.128906 36.832031 7.253906 38.964844 C 8.851562 41.992188 10.5625 43.773438 12.480469 44.414062 C 13.554688 44.769531 15.507812 45.023438 17.5625 43.3125 C 17.824219 43.625 18.171875 43.9375 18.632812 44.230469 C 19.21875 44.601562 19.933594 44.902344 20.648438 45.082031 C 23.226562 45.726562 25.640625 45.5625 27.699219 44.660156 C 27.714844 45.027344 27.722656 45.375 27.730469 45.679688 C 27.746094 46.167969 27.757812 46.648438 27.777344 47.097656 C 27.898438 50.140625 28.105469 52.503906 28.71875 54.15625 C 28.75 54.246094 28.796875 54.386719 28.84375 54.53125 C 29.148438 55.46875 29.660156 57.035156 30.960938 58.261719 C 32.308594 59.535156 33.9375 59.921875 35.429688 59.921875 C 36.175781 59.921875 36.890625 59.824219 37.515625 59.691406 C 39.75 59.210938 42.285156 58.484375 44.117188 55.875 C 45.851562 53.40625 46.695312 49.6875 46.847656 43.828125 C 46.867188 43.664062 46.882812 43.507812 46.902344 43.355469 C 46.914062 43.253906 46.925781 43.148438 46.9375 43.046875 L 47.347656 43.082031 L 47.453125 43.089844 C 49.726562 43.191406 52.503906 42.710938 54.210938 41.917969 C 55.5625 41.292969 59.882812 39.007812 58.867188 35.929688 "/>
<path style=" stroke:none;fill-rule:nonzero;fill:rgb(20%,40.392157%,56.862745%);fill-opacity:1;" d="M 54.980469 36.527344 C 48.21875 37.921875 47.753906 35.632812 47.753906 35.632812 C 54.890625 25.042969 57.875 11.601562 55.300781 8.3125 C 48.277344 -0.660156 36.117188 3.582031 35.914062 3.691406 L 35.851562 3.703125 C 34.515625 3.429688 33.019531 3.261719 31.339844 3.234375 C 28.28125 3.183594 25.960938 4.035156 24.203125 5.371094 C 24.203125 5.371094 2.515625 -3.5625 3.523438 16.609375 C 3.738281 20.902344 9.671875 49.082031 16.753906 40.570312 C 19.34375 37.457031 21.84375 34.824219 21.84375 34.824219 C 23.085938 35.648438 24.570312 36.070312 26.128906 35.917969 L 26.25 35.816406 C 26.214844 36.203125 26.230469 36.582031 26.300781 37.027344 C 24.476562 39.066406 25.011719 39.425781 21.363281 40.175781 C 17.675781 40.933594 19.84375 42.289062 21.257812 42.644531 C 22.972656 43.070312 26.941406 43.679688 29.625 39.925781 L 29.519531 40.355469 C 30.230469 40.925781 30.734375 44.078125 30.648438 46.933594 C 30.566406 49.789062 30.511719 51.75 31.074219 53.285156 C 31.636719 54.816406 32.199219 58.261719 36.992188 57.234375 C 40.996094 56.375 43.070312 54.152344 43.359375 50.441406 C 43.566406 47.804688 44.027344 48.195312 44.058594 45.835938 L 44.429688 44.71875 C 44.859375 41.144531 44.5 39.988281 46.964844 40.527344 L 47.566406 40.578125 C 49.382812 40.660156 51.757812 40.285156 53.15625 39.636719 C 56.160156 38.242188 57.941406 35.917969 54.976562 36.527344 L 54.980469 36.527344 "/>
<path style=" stroke:none;fill-rule:nonzero;fill:rgb(100%,100%,100%);fill-opacity:1;" d="M 25.472656 18.527344 C 24.863281 18.445312 24.3125 18.523438 24.03125 18.734375 C 23.875 18.851562 23.828125 18.988281 23.8125 19.085938 C 23.777344 19.335938 23.953125 19.613281 24.0625 19.757812 C 24.367188 20.164062 24.816406 20.441406 25.257812 20.503906 C 25.320312 20.511719 25.386719 20.515625 25.449219 20.515625 C 26.1875 20.515625 26.855469 19.941406 26.917969 19.515625 C 26.988281 18.988281 26.21875 18.632812 25.472656 18.527344 "/>
<path style=" stroke:none;fill-rule:nonzero;fill:rgb(100%,100%,100%);fill-opacity:1;" d="M 45.648438 18.546875 C 45.59375 18.128906 44.851562 18.011719 44.148438 18.109375 C 43.445312 18.207031 42.765625 18.523438 42.824219 18.941406 C 42.867188 19.265625 43.453125 19.816406 44.148438 19.816406 C 44.207031 19.816406 44.265625 19.8125 44.324219 19.804688 C 44.789062 19.742188 45.128906 19.449219 45.289062 19.277344 C 45.535156 19.019531 45.675781 18.730469 45.648438 18.546875 "/>
<path style=" stroke:none;fill-rule:nonzero;fill:rgb(100%,100%,100%);fill-opacity:1;" d="M 57.226562 36.371094 C 56.96875 35.589844 56.140625 35.339844 54.761719 35.625 C 50.671875 36.46875 49.203125 35.882812 48.722656 35.527344 C 51.90625 30.683594 54.519531 24.828125 55.933594 19.363281 C 56.601562 16.773438 56.96875 14.367188 57 12.410156 C 57.035156 10.257812 56.667969 8.679688 55.914062 7.710938 C 52.867188 3.820312 48.394531 1.734375 42.984375 1.675781 C 39.265625 1.632812 36.121094 2.585938 35.511719 2.855469 C 34.230469 2.535156 32.828125 2.339844 31.308594 2.3125 C 28.515625 2.269531 26.101562 2.9375 24.101562 4.300781 C 23.234375 3.976562 20.988281 3.207031 18.246094 2.765625 C 13.503906 2 9.734375 2.578125 7.042969 4.484375 C 3.832031 6.757812 2.351562 10.824219 2.636719 16.566406 C 2.734375 18.5 3.835938 24.441406 5.574219 30.136719 C 7.859375 37.625 10.34375 41.867188 12.960938 42.738281 C 13.265625 42.84375 13.621094 42.914062 14.007812 42.914062 C 14.964844 42.914062 16.132812 42.484375 17.351562 41.019531 C 19.371094 38.589844 21.257812 36.550781 21.953125 35.808594 C 22.984375 36.363281 24.113281 36.671875 25.269531 36.699219 C 25.269531 36.730469 25.273438 36.761719 25.277344 36.792969 C 25.042969 37.066406 24.855469 37.308594 24.691406 37.511719 C 23.890625 38.527344 23.726562 38.742188 21.148438 39.269531 C 20.414062 39.421875 18.46875 39.824219 18.441406 41.1875 C 18.410156 42.679688 20.742188 43.304688 21.007812 43.371094 C 21.933594 43.601562 22.824219 43.71875 23.675781 43.71875 C 25.746094 43.71875 27.566406 43.039062 29.019531 41.722656 C 28.976562 47.035156 29.195312 52.273438 29.835938 53.871094 C 30.359375 55.175781 31.632812 58.367188 35.667969 58.367188 C 36.257812 58.367188 36.910156 58.300781 37.628906 58.144531 C 41.835938 57.242188 43.664062 55.382812 44.371094 51.28125 C 44.75 49.089844 45.398438 43.855469 45.703125 41.046875 C 46.347656 41.25 47.179688 41.339844 48.078125 41.339844 C 49.949219 41.339844 52.105469 40.941406 53.460938 40.316406 C 54.980469 39.609375 57.726562 37.875 57.226562 36.371094 Z M 47.203125 17.398438 C 47.191406 18.226562 47.074219 18.976562 46.953125 19.761719 C 46.824219 20.609375 46.691406 21.480469 46.65625 22.542969 C 46.621094 23.574219 46.75 24.648438 46.875 25.683594 C 47.128906 27.777344 47.386719 29.9375 46.386719 32.066406 C 46.230469 31.789062 46.082031 31.488281 45.941406 31.152344 C 45.820312 30.851562 45.546875 30.367188 45.175781 29.699219 C 43.71875 27.089844 40.316406 20.984375 42.058594 18.492188 C 42.578125 17.75 43.894531 16.984375 47.203125 17.398438 Z M 43.195312 3.355469 C 48.042969 3.460938 51.878906 5.273438 54.59375 8.746094 C 56.675781 11.40625 54.382812 23.515625 47.742188 33.964844 C 47.675781 33.882812 47.609375 33.796875 47.542969 33.710938 C 47.515625 33.675781 47.484375 33.640625 47.457031 33.605469 C 49.171875 30.773438 48.835938 27.96875 48.539062 25.484375 C 48.417969 24.464844 48.300781 23.5 48.332031 22.597656 C 48.359375 21.636719 48.488281 20.8125 48.609375 20.019531 C 48.761719 19.039062 48.914062 18.023438 48.871094 16.828125 C 48.902344 16.703125 48.917969 16.554688 48.898438 16.378906 C 48.792969 15.230469 47.484375 11.800781 44.816406 8.695312 C 43.355469 6.996094 41.226562 5.09375 38.320312 3.8125 C 39.570312 3.554688 41.28125 3.3125 43.195312 3.355469 Z M 16.0625 39.949219 C 14.722656 41.5625 13.796875 41.253906 13.492188 41.152344 C 11.507812 40.488281 9.203125 36.296875 7.175781 29.644531 C 5.417969 23.890625 4.390625 18.105469 4.3125 16.484375 C 4.054688 11.351562 5.296875 7.777344 8.007812 5.855469 C 12.417969 2.726562 19.667969 4.597656 22.582031 5.546875 C 22.539062 5.589844 22.496094 5.628906 22.453125 5.667969 C 17.675781 10.496094 17.789062 18.746094 17.800781 19.25 C 17.800781 19.445312 17.816406 19.722656 17.835938 20.101562 C 17.917969 21.488281 18.074219 24.070312 17.664062 26.996094 C 17.285156 29.710938 18.121094 32.371094 19.960938 34.292969 C 20.152344 34.492188 20.351562 34.675781 20.558594 34.851562 C 19.738281 35.730469 17.957031 37.671875 16.0625 39.949219 Z M 21.171875 33.132812 C 19.6875 31.585938 19.015625 29.433594 19.324219 27.226562 C 19.753906 24.136719 19.59375 21.445312 19.507812 20 C 19.496094 19.800781 19.488281 19.621094 19.480469 19.480469 C 20.179688 18.863281 23.414062 17.128906 25.722656 17.65625 C 26.777344 17.898438 27.417969 18.617188 27.6875 19.847656 C 29.066406 26.238281 27.867188 28.898438 26.90625 31.039062 C 26.707031 31.476562 26.519531 31.894531 26.359375 32.324219 L 26.234375 32.660156 C 25.921875 33.5 25.628906 34.285156 25.449219 35.027344 C 23.871094 35.023438 22.335938 34.351562 21.171875 33.132812 Z M 21.414062 41.746094 C 20.953125 41.632812 20.539062 41.433594 20.296875 41.265625 C 20.5 41.171875 20.859375 41.039062 21.484375 40.910156 C 24.515625 40.289062 24.984375 39.847656 26.007812 38.550781 C 26.242188 38.25 26.507812 37.914062 26.875 37.503906 C 27.425781 36.890625 27.675781 36.992188 28.128906 37.183594 C 28.496094 37.335938 28.855469 37.796875 29.003906 38.304688 C 29.070312 38.542969 29.148438 39 28.894531 39.355469 C 26.757812 42.34375 23.648438 42.304688 21.414062 41.746094 Z M 37.277344 56.507812 C 33.566406 57.304688 32.253906 55.410156 31.390625 53.25 C 30.832031 51.851562 30.558594 45.554688 30.753906 38.601562 C 30.753906 38.507812 30.742188 38.417969 30.714844 38.335938 C 30.695312 38.171875 30.660156 38.007812 30.613281 37.84375 C 30.324219 36.832031 29.617188 35.984375 28.769531 35.632812 C 28.433594 35.496094 27.816406 35.238281 27.074219 35.429688 C 27.234375 34.777344 27.507812 34.042969 27.804688 33.246094 L 27.929688 32.910156 C 28.070312 32.53125 28.246094 32.140625 28.433594 31.726562 C 29.441406 29.488281 30.820312 26.421875 29.324219 19.496094 C 28.761719 16.902344 26.890625 15.632812 24.050781 15.929688 C 22.347656 16.105469 20.789062 16.792969 20.011719 17.1875 C 19.84375 17.269531 19.691406 17.351562 19.550781 17.433594 C 19.765625 14.816406 20.585938 9.933594 23.648438 6.84375 C 25.578125 4.898438 28.148438 3.9375 31.277344 3.988281 C 37.449219 4.089844 41.402344 7.253906 43.636719 9.894531 C 45.558594 12.164062 46.601562 14.457031 47.015625 15.691406 C 43.890625 15.371094 41.765625 15.988281 40.6875 17.53125 C 38.339844 20.882812 41.96875 27.386719 43.710938 30.515625 C 44.03125 31.085938 44.308594 31.582031 44.394531 31.792969 C 44.960938 33.167969 45.699219 34.085938 46.234375 34.757812 C 46.398438 34.964844 46.558594 35.164062 46.679688 35.335938 C 45.734375 35.609375 44.03125 36.242188 44.1875 39.394531 C 44.0625 40.976562 43.171875 48.378906 42.722656 50.996094 C 42.125 54.453125 40.851562 55.742188 37.277344 56.507812 Z M 52.753906 38.796875 C 51.785156 39.246094 50.167969 39.582031 48.628906 39.65625 C 46.925781 39.734375 46.0625 39.464844 45.859375 39.296875 C 45.761719 37.332031 46.492188 37.128906 47.269531 36.910156 C 47.390625 36.875 47.507812 36.84375 47.621094 36.804688 C 47.695312 36.863281 47.773438 36.917969 47.855469 36.976562 C 49.222656 37.878906 51.660156 37.972656 55.101562 37.265625 C 55.113281 37.261719 55.125 37.257812 55.140625 37.257812 C 54.675781 37.691406 53.878906 38.273438 52.753906 38.796875 Z M 52.753906 38.796875 "/>
</g>
</svg>
