<?xml version="1.0" encoding="UTF-8"?>
<svg xmlns="http://www.w3.org/2000/svg" xmlns:xlink="http://www.w3.org/1999/xlink" width="60px" height="px" viewBox="0 0 60 60" version="1.1">
<g id="surface1">
<path style=" stroke:none;fill-rule:nonzero;fill:rgb(94.509804%,18.039216%,27.058824%);fill-opacity:1;" d="M 30 0 C 46.558594 0 60 13.441406 60 30 C 60 46.558594 46.558594 60 30 60 C 13.441406 60 0 46.558594 0 30 C 0 13.441406 13.441406 0 30 0 Z M 30 7.921875 C 17.761719 7.921875 7.921875 17.761719 7.921875 30 C 7.921875 42.238281 17.761719 52.078125 30 52.078125 C 42.238281 52.078125 52.078125 42.238281 52.078125 30 C 52.078125 17.761719 42.238281 7.921875 30 7.921875 Z M 37.441406 31.199219 C 40.886719 31.199219 43.679688 33.992188 43.679688 37.441406 C 43.679688 40.886719 40.886719 43.679688 37.441406 43.679688 C 33.992188 43.679688 31.199219 40.886719 31.199219 37.441406 C 31.199219 33.992188 33.992188 31.199219 37.441406 31.199219 Z M 22.558594 31.199219 C 26.007812 31.199219 28.800781 33.992188 28.800781 37.441406 C 28.800781 40.886719 26.007812 43.679688 22.558594 43.679688 C 19.113281 43.679688 16.320312 40.886719 16.320312 37.441406 C 16.320312 33.992188 19.113281 31.199219 22.558594 31.199219 Z M 37.441406 16.320312 C 40.886719 16.320312 43.679688 19.113281 43.679688 22.558594 C 43.679688 26.007812 40.886719 28.800781 37.441406 28.800781 C 33.992188 28.800781 31.199219 26.007812 31.199219 22.558594 C 31.199219 19.113281 33.992188 16.320312 37.441406 16.320312 Z M 22.558594 16.320312 C 26.007812 16.320312 28.800781 19.113281 28.800781 22.558594 C 28.800781 26.007812 26.007812 28.800781 22.558594 28.800781 C 19.113281 28.800781 16.320312 26.007812 16.320312 22.558594 C 16.320312 19.113281 19.113281 16.320312 22.558594 16.320312 Z M 22.558594 16.320312 "/>
</g>
</svg>
