<?xml version="1.0" encoding="UTF-8"?> <svg xmlns="http://www.w3.org/2000/svg" width="48" height="42" viewBox="0 0 48 42" fill="none"><path fill-rule="evenodd" clip-rule="evenodd" d="M24.4794 0.0418688C24.486 0.0407011 24.4926 0.039536 24.4992 0.0383735L24.4935 0.0327148C24.4935 0.0327148 24.4887 0.0358037 24.4794 0.0418688ZM0.996094 26.1498C0.996094 13.6919 12.0626 2.24016 24.4794 0.0418688C24.1814 0.2357 19.2713 3.46933 19.2713 6.07257C19.2713 11.4391 21.8824 10.4801 21.8824 10.4801C21.8824 10.4801 21.8004 27.8613 21.8004 29.2475C21.8004 30.6337 22.683 31.3692 24.4935 31.3692L24.5897 31.3523C26.4332 30.9461 28.177 30.1757 29.7186 29.0863V13.0912L29.7158 13.0516C29.4782 11.0204 28.5248 9.20707 27.1075 7.86897C29.8997 7.86897 30.6154 9.41924 30.6154 9.41924C30.6154 9.41924 33.3482 5.11638 42.7743 2.64669C41.3485 4.4742 37.5521 9.48997 37.5521 11.1336V30.0679C37.5521 31.0184 39.4701 31.3749 40.1632 31.3749L40.2735 31.3466C43.3165 30.4399 46.0113 28.6282 47.9995 26.1526C47.9995 27.3549 43.1874 35.4345 34.9438 39.2083L29.7215 36.5972L24.4992 41.8195C24.4992 41.8195 13.5539 41.0132 8.82952 33.9832C10.1082 34.1784 13.9726 34.5037 13.9726 32.515V16.52C13.9726 15.2271 13.3813 14.6444 12.2582 14.6444C11.1351 14.6444 7.07555 15.4167 0.996094 26.1498Z" fill="#FEA31A"></path></svg> 