<?xml version="1.0" encoding="UTF-8"?> <svg xmlns="http://www.w3.org/2000/svg" width="34" height="42" viewBox="0 0 34 42" fill="none"><path d="M1.74959 21.0942C4.13806 18.6165 6.5097 16.1571 8.91385 13.6604L0 10.5483C0.336245 9.95985 0.656797 9.40011 0.979032 8.84383C2.64008 5.97341 4.30001 3.10107 5.95882 0.226823C6.0709 0.035653 6.19812 0.00292969 6.38978 0.00292969C11.3214 0.00867053 16.253 0.0111585 21.1846 0.0103931C21.9596 0.0103931 22.7347 0.019004 23.5097 0.00465187C23.7266 0.00063328 23.8387 0.0666536 23.9373 0.269879C25.8617 4.22226 27.7903 8.17311 29.723 12.1224C31.127 14.9955 32.5321 17.8682 33.9384 20.7406C33.9794 20.8135 34.0008 20.8963 34.0002 20.9804C33.9996 21.0646 33.9771 21.1471 33.935 21.2194C31.7251 25.7439 29.5182 30.2696 27.3143 34.7965C26.189 37.1066 25.0663 39.4182 23.9463 41.7314C23.8482 41.9335 23.7395 42.0001 23.5209 42.0001C17.5533 41.9932 11.5853 41.9932 5.61698 42.0001C5.38777 42.0001 5.27344 41.926 5.17256 41.7176C3.54065 38.3615 1.90427 35.0081 0.263389 31.6574C0.225842 31.5804 0.191091 31.5024 0.131127 31.3743L8.8735 28.2743L1.74959 21.0942ZM4.91198 33.917C4.94784 34.0111 4.96129 34.0553 4.98091 34.0961C5.70944 35.5921 6.44357 37.0865 7.1665 38.5866C7.25729 38.7754 7.39067 38.7542 7.53581 38.7542C11.2502 38.7542 14.9646 38.7542 18.679 38.7542C18.7658 38.7542 18.8533 38.7439 18.9822 38.7358C18.9087 38.652 18.8701 38.6015 18.8247 38.5561C17.3796 37.0754 15.9352 35.594 14.4916 34.1121C14.4328 34.0467 14.3608 33.9952 14.2805 33.9613C14.2003 33.9274 14.1137 33.9119 14.027 33.9158C12.1216 33.9221 10.219 33.9158 8.31534 33.9158L4.91198 33.917ZM6.17682 21.0001C6.30179 21.1338 6.35166 21.1901 6.40434 21.2435C8.22062 23.0742 10.0414 24.8992 11.8482 26.7403C12.088 26.9849 12.2847 27.1043 12.6086 26.9126C12.8418 26.7771 13.1999 26.765 13.3288 26.575C13.4576 26.385 13.3753 26.0417 13.3753 25.7655C13.3779 22.3811 13.3811 18.9965 13.3848 15.6117C13.3848 15.3821 13.3288 15.2627 13.1102 15.1995C12.8769 15.1307 12.6496 15.0424 12.4304 14.9354C12.2567 14.8528 12.1502 14.8941 12.0202 15.0302C10.7795 16.3284 9.53385 17.6212 8.28339 18.9087C7.59801 19.6142 6.89022 20.2934 6.17626 21.0001H6.17682ZM16.5444 25.378L27.8546 20.9754L16.5444 16.5492V25.378ZM5.12269 8.02231C5.22861 8.03207 5.28241 8.04183 5.33621 8.04183C8.2593 8.04183 11.1826 8.03973 14.106 8.03552C14.2406 8.02613 14.3674 7.96815 14.4641 7.8719C15.9212 6.39957 17.3717 4.92226 18.8157 3.43997C18.8578 3.39692 18.8919 3.34582 18.9676 3.25052H16.0081C13.4029 3.25052 10.7972 3.24785 8.19093 3.24249C7.95332 3.24249 7.82722 3.32516 7.71178 3.53412C7.31949 4.24139 6.90592 4.93489 6.50186 5.6347C6.04905 6.41143 5.59904 7.19276 5.12269 8.02231ZM28.281 25.579L28.2351 25.537L17.4735 32.5713L22.4191 37.5968C24.3682 33.602 26.3222 29.596 28.281 25.579ZM22.4102 4.37516C20.7654 6.07444 19.1475 7.74503 17.5212 9.4271L28.2395 16.4309L28.2771 16.3861C26.3246 12.3867 24.369 8.38303 22.4102 4.37516Z" fill="#8A56DF"></path></svg> 