<?xml version="1.0" encoding="UTF-8"?> <svg xmlns="http://www.w3.org/2000/svg" width="42" height="39" viewBox="0 0 42 39" fill="none"><g clip-path="url(#clip0_5563_17712)"><path d="M21.0942 20.6028C21.2347 20.2936 21.344 20.0701 21.4402 19.8408C23.546 14.8262 25.651 9.81115 27.7551 4.79575C28.237 3.64633 28.7183 2.4969 29.1859 1.34226C29.2727 1.12859 29.3861 1.05274 29.62 1.05274C33.5705 1.06239 37.521 1.0676 41.4715 1.06837C42.098 1.06837 41.9923 1.06837 41.9923 1.58952C41.9923 11.8813 41.9923 22.1728 41.9923 32.4642C41.9923 34.5268 41.9882 36.5888 42.0018 38.6508C42.0018 38.9346 41.9191 38.9983 41.6368 38.9983C38.915 38.9867 36.1929 38.9851 33.4707 38.9936C33.3741 38.9988 33.2775 38.9829 33.1879 38.9472C33.0982 38.9114 33.0178 38.8567 32.9522 38.7869C32.3692 38.2005 31.7787 37.6215 31.1807 37.0498C31.1065 36.9817 31.0485 36.8985 31.0107 36.8061C30.9729 36.7136 30.9564 36.6141 30.9622 36.5147C30.9677 31.6286 30.9693 26.7429 30.9669 21.8576V21.4691L30.8795 21.4453C30.813 21.5303 30.7513 21.6189 30.6947 21.7106C29.8526 23.2462 29.0121 24.783 28.1732 26.321C27.314 27.9018 26.4548 29.4832 25.6104 31.0693C25.4835 31.309 25.3299 31.4045 25.063 31.4045C23.1267 31.4045 21.191 31.4086 19.2548 31.4115C18.4788 31.4115 17.7023 31.4063 16.9264 31.4161C16.6784 31.4196 16.5337 31.324 16.4168 31.1115C15.5901 29.6025 14.7462 28.1004 13.9118 26.5949C12.7727 24.5398 11.639 22.4836 10.4922 20.4303C10.4077 20.2786 10.2371 20.1732 10.106 20.0458C10.0776 20.2108 10.0168 20.377 10.0257 20.5391C10.1438 22.6353 10.2664 24.7311 10.3936 26.8265C10.5353 29.0756 10.6888 31.3235 10.8388 33.5719C10.9026 34.5419 10.9516 35.5135 11.0296 36.4829C11.052 36.7637 10.9486 36.9281 10.7248 37.077C9.75818 37.7174 8.68639 38.11 7.56738 38.3955C5.60216 38.8969 3.5962 39.0139 1.57607 38.9948C1.06705 38.9902 0.558029 38.9948 0.0271611 38.9948C0.020075 38.879 0.0100341 38.7968 0.0100341 38.714C0.0100341 28.0948 0.0100341 17.4755 0.0100341 6.85603C0.0100341 5.05401 0.0100387 3.25199 0 1.44997C0 1.17607 0.0897529 1.08864 0.36434 1.06605C2.26224 0.910866 4.15837 0.741201 6.05509 0.571537C8.07503 0.391644 10.0948 0.208857 12.1143 0.0231731C12.6977 -0.0301 12.6995 -0.0347336 12.9446 0.572117C13.5823 2.14715 14.2191 3.72295 14.8549 5.29953C16.1772 8.56734 17.4996 11.8348 18.8219 15.1018C19.5278 16.8478 20.2336 18.5935 20.9395 20.3388C20.9862 20.4295 21.0378 20.5176 21.0942 20.6028Z" fill="#EA497F"></path></g><defs><clipPath id="clip0_5563_17712"><rect width="42" height="39" fill="white"></rect></clipPath></defs></svg> 