<?xml version="1.0" encoding="UTF-8"?> <svg xmlns="http://www.w3.org/2000/svg" width="42" height="46" viewBox="0 0 42 46" fill="none"><path d="M21.1182 0H20.9165C20.6461 0.178399 20.3879 0.383659 20.1095 0.533283C13.6539 4.07184 7.19824 7.60529 0.742596 11.1336C0.210007 11.4214 0.00422287 11.7283 0.024395 12.3191C0.0748291 13.7808 0.0405502 15.2464 0.0405502 16.71V21.8395C0.542881 21.7014 0.922146 21.6054 1.2994 21.4922C3.74851 20.7576 6.18752 19.9788 8.65479 19.2997C9.4799 19.0733 9.8652 18.7242 9.69372 17.9204C9.51821 17.063 9.95398 16.6333 10.7226 16.2266C13.904 14.5443 17.0511 12.8044 20.1902 11.0473C20.7732 10.7231 21.1989 10.6751 21.8182 11.0243C23.995 12.2654 26.2141 13.4394 28.4151 14.6421C28.6915 14.7918 28.9517 14.9644 29.3068 15.1811C28.988 15.2962 28.8044 15.373 28.6168 15.4305C19.4001 18.244 10.1812 21.0446 0.960442 23.8325C0.193832 24.0627 0.012291 24.3888 0.024395 25.0967C0.066761 27.7074 0.115162 30.3201 0.00823975 32.927C-0.0401764 34.1029 0.375427 34.7033 1.44262 35.2788C8.00519 38.8122 14.5193 42.4244 21.0113 45.9962C26.0305 43.2415 31.0014 40.5042 35.9843 37.7821C37.9755 36.6945 39.9909 35.6433 41.9941 34.5748V24.0723L32.3389 27.0744C32.3156 27.3578 32.3156 27.6426 32.3389 27.9261C32.4963 28.8661 32.0989 29.3821 31.2031 29.8444C28.0157 31.5133 24.8806 33.2742 21.7456 35.0237C21.2231 35.3153 20.8337 35.3498 20.2971 35.0448C17.9751 33.7231 15.6249 32.4513 13.2887 31.1564C13.087 31.0433 12.9115 30.8898 12.623 30.6846C20.7329 28.2484 28.6794 25.8525 36.6299 23.4719C38.4072 22.9406 40.1987 22.461 41.984 21.9584V11.452C41.6855 11.3139 41.3788 11.195 41.0904 11.0377C36.4907 8.5171 31.8937 5.99203 27.2995 3.46248C25.2417 2.3307 23.184 1.15863 21.1182 0Z" fill="#1655CF"></path></svg> 